<svg xmlns="http://www.w3.org/2000/svg" height="800" width="1200" viewBox="-44.7 -21.743975 387.4 130.46385"><path d="M33.2452 86.3794H0L16.6247 57.586h33.2452z" fill="#ed1b23"/><path d="M66.4922 86.3794h33.2515L83.1211 57.586H49.8696zm0-57.5861L49.8696 0 33.245 28.7933l16.6246 28.7911z" fill="#ed1b23"/><path d="M114.67 74.1215h13.3157V69.293h-13.3158v-5.9401h14.9808V58.522h-20.6241v27.8565h21.0177v-4.8287H114.67zm-.3888-40.9479l5.9148 20.704h5.4202l5.917-20.704v20.704h5.256V26.0253h-8.0493l-5.8307 19.5505-5.8327-19.5505h-8.0514v27.8523h5.256zm128.2246-7.1481h-5.6117V53.878h5.6117zm4.574 32.4958h-5.6096V86.38h5.6096zM298 26.0255h-5.6096V53.878H298zm-153.3627 0h-5.6117V53.878h5.6117zm139.9118 10.865h-11.1519V26.027h-5.5212v27.8502h5.5212v-12.158h11.152v12.158h5.5211V26.027h-5.5212zM152.935 53.878h5.7316V30.8503h6.8053v-4.8245h-19.3422v4.8245h6.8052zm51.1805 32.5014h5.7233V63.3536h6.8074v-4.833H197.306v4.833h6.8094zm-3.833-31.7261c7.1462 0 11.1119-3.252 11.1119-9.47v-19.157h-5.6097v19.6643c0 2.3933-2.0165 4.395-5.5022 4.395-4.2183 0-5.4602-2.3617-5.4602-4.395V26.0264h-5.517v19.1569c0 6.6936 4.1551 9.47 10.9772 9.47m-42.4058 19.4682h13.322V69.293h-13.322v-5.9401h14.985V58.522h-20.6262v27.8565h21.0176v-4.8287h-15.3764zm68.0699-43.6721c1.5323 0 3.2457 1.425 3.2457 3.2984 0 1.6692-1.1977 3.5068-3.5594 3.5068h-6.681v-6.8052zm-.4147 19.218h-6.58v-8.0766h6.5147c2.345 0 4.3278 1.3471 4.3278 4.0478 0 2.2859-1.7998 4.0288-4.2625 4.0288m-6.3632 4.2098h8.0408c5.2392 0 8.365-3.1342 8.365-7.5188 0-3.5447-2.5722-6.5863-5.3718-7.2851 2.448-.623 4.414-3.1216 4.414-6.1969 0-4.1067-3.0353-6.8494-8.6807-6.8494h-12.56v27.8502h.0274zm4.4973 17.0158v-7.5798h6.7927c2.2922 0 3.8204 1.6081 3.8204 3.8078 0 1.5471-1.3577 3.772-3.6542 3.772zm11.1814 2.1134c2.3891-.72 4.955-2.8627 4.955-6.7295 0-4.9529-3.3552-7.7945-9.0638-7.7945h-12.7179v27.8565h5.6454V75.3618h4.7887c2.8985 0 4.473 1.5029 4.9486 3.4878.52 2.1891.3874 5.4518.9473 7.4893h5.6706c-.5515-2.1322-.8756-5.0328-.9977-7.323-.2042-3.77-2.187-5.2728-4.1762-6.0095M137.496 58.5215h-5.6412v27.8587h18.7717v-4.8308H137.496zm37.3937-16.4145c4.5214.7893 7.0915 1.6228 7.0915 4.3213 0 1.827-1.8102 3.5594-5.5591 3.5594-3.751 0-5.6728-2.1322-5.6728-4.6624h-5.4075c0 4.8435 3.1384 9.2722 11.3245 9.2722 7.7924 0 11.1708-4.1235 11.1708-8.8322 0-4.3888-2.8774-7.1736-8.024-8.184-4.9423-.9703-8.3355-1.1808-8.3355-4.313 0-2.1512 1.9681-3.4226 4.9908-3.4226 3.2184 0 5.0645 1.5808 5.0645 4.252h5.4496c0-4.3951-3.33-8.9186-10.7372-8.9186-5.1087 0-10.4089 2.9427-10.4089 8.447 0 4.6267 3.3974 7.4915 9.0533 8.4808m78.5318.0001c4.5172.7893 7.0852 1.6228 7.0852 4.3213 0 1.827-1.804 3.5594-5.555 3.5594-3.7488 0-5.6769-2.1322-5.6769-4.6624h-5.4033c0 4.8435 3.1363 9.2722 11.3203 9.2722 7.7924 0 11.1729-4.1235 11.1729-8.8322 0-4.3888-2.8753-7.1736-8.0198-8.184-4.9465-.9703-8.3355-1.1808-8.3355-4.313 0-2.1512 1.964-3.4226 4.9908-3.4226 3.21 0 5.0602 1.5808 5.0602 4.252h5.4518c0-4.3951-3.3321-8.9186-10.7372-8.9186-5.1129 0-10.413 2.9427-10.413 8.447 0 4.6267 3.4036 7.4915 9.0595 8.4808" fill="#221e1f"/><path d="M185.9503 82.0756c-4.5383 0-7.1863-4.4456-7.1863-9.7395 0-5.296 2.5554-9.7479 7.1863-9.7479 3.4436 0 5.2118 2.145 5.978 4.7635h5.8432c-.9577-5.4518-5.2223-9.5037-11.9812-9.5037-8.5207 0-12.8295 6.521-12.8295 14.566 0 8.045 4.4856 14.5619 12.8295 14.5619 6.679 0 11.1877-3.8815 12.0149-9.8321h-5.877c-.7661 2.7995-2.5953 4.9318-5.978 4.9318m75.4843 0c-4.536 0-7.184-4.4456-7.184-9.7395 0-5.296 2.551-9.7479 7.184-9.7479 3.4479 0 5.216 2.145 5.978 4.7635h5.8433c-.9599-5.4518-5.2223-9.5037-11.9833-9.5037-8.5229 0-12.8296 6.521-12.8296 14.566 0 8.045 4.4856 14.5619 12.8296 14.5619 6.681 0 11.1876-3.8815 12.017-9.8321h-5.877c-.762 2.7995-2.5996 4.9318-5.978 4.9318" fill="#221e1f"/></svg>