<svg xmlns="http://www.w3.org/2000/svg" height="800" width="1200" viewBox="-57.91935 -14.0302 501.9677 84.1812"><path d="M64.5635 20.4316c-1.4238 4.0181-10.3975 8.2153-32.438 3.2329l2.8667 13.0166c22.0405 4.0059 35.105.7114 42.5669-7.1226 5.5273-5.8062 6.6104-13.3169 2.0688-19.0635C74.8247 4.4111 64.1851 0 50.748 0 31.5269 0 17.8306 5.5688 10.2266 26.4648L0 54.5596h17.8882l10.1753-28.4141C32.2378 14.459 41.0112 12.5239 50.748 12.5239c10.21 0 15.1392 4.2051 13.8155 7.9077zm177.1181 12.3311l-.6924-.2983c4.0029-1.5957 8.3477-2.459 12.6641-2.459 2.6201 0 8.4463.4443 10.9014 1.8491.5977.3359 1.1445.8633.8516 1.5195-1.084 2.4439-17.0401 2.3072-23.7247-.6113zm32.6758-6.5698c-4.2285-2.2603-11.1992-4.063-18.0156-4.3413-14.1426-.583-30.2637 4.2417-33.4756 15.6426-1.8545 6.5581 4.501 15.417 21.0498 17.9302 8.2813 1.27 21.4365.9482 30.9053-2.1802l3.5352-9.7334c-19.2021 6.5986-44.2979 4.6826-43.458-5.2007 9.291 5.9595 22.8457 5.3945 32.8828 3.75 17.3867-2.8374 17.1328-10.2266 6.5761-15.8672zm29.3115 6.5698l-.6846-.2983c3.999-1.5957 8.3467-2.459 12.6563-2.459 2.6299 0 8.4473.4443 10.9043 1.8491.5967.3359 1.1436.8633.8496 1.5195-1.084 2.4439-17.0332 2.3072-23.7256-.6113zm32.6768-6.5698c-4.2227-2.2603-11.1992-4.063-18.0156-4.3413-14.1348-.583-30.2568 4.2417-33.4766 15.6426-1.8486 6.5581 4.5088 15.417 21.0508 17.9302 8.2793 1.27 21.4434.9482 30.9092-2.1802l3.5381-9.7334c-19.2021 6.5986-44.2959 4.6826-43.459-5.2007 9.291 5.9595 22.8457 5.3945 32.877 3.75 17.3847-2.8374 17.1406-10.2266 6.5761-15.8672zm13.0557 8.3672l-7.0938 20.0063h16.376l5.459-15.3945c1.3418-3.9053 2.4805-6.8257 7.2559-6.8257h11.5059l3.2246-9.2178h-21.1953c-7.0899 0-12.8048 3.5161-15.5323 11.4317zM103.4907 23.1284H86.5366l-11.459 31.438h16.9541zm81.6021 14.522c1.5762-4.3252 6.3423-6.3276 10.5156-6.3276 4.1377 0 8.0991 2.438 6.5659 6.6489l-6.0532 16.5947h16.375l6.1445-16.8564c3.1875-8.7544-3.7168-16.0059-19.1797-16.0059-17.2139 0-26.9712 5.6255-30.7319 15.9268l-6.1689 16.9355h16.3677zm-50.5132-6.0088c6.6177.2788 11.9502 3.6089 10.9995 7.9341-.9116 4.1699-7.3608 7.0093-14.0542 6.7236-6.6157-.2744-11.9434-3.6187-11.0005-7.9419.917-4.1621 7.3638-7.0068 14.0552-6.7158zm2.3071-9.7734c-17.0547-.7241-32.2505 6.5669-34.2944 15.8882-2.0146 9.1733 9.5059 17.5884 26.626 18.3125 17.0508.7256 32.252-6.5635 34.2988-15.8887 2.0088-9.1724-9.5112-17.5928-26.6304-18.312z" fill="#A90533"/></svg>