<?xml version="1.0" encoding="utf-8"?>
<!-- Generator: Adobe Illustrator 25.1.0, SVG Export Plug-In . SVG Version: 6.00 Build 0)  -->
<svg version="1.1" id="Capa_1" xmlns="http://www.w3.org/2000/svg" xmlns:xlink="http://www.w3.org/1999/xlink" x="0px" y="0px"
	 viewBox="0 0 215.84 78.07" style="enable-background:new 0 0 215.84 78.07;" xml:space="preserve">
<style type="text/css">
	.st0{fill:#fff;stroke:#778beb;stroke-width:0.25;stroke-miterlimit:10;}
	.st1{fill:#fff;}
</style>
<g>
	<path class="st0" d="M39.87,46c0.24,0.18,0.38,0.38,0.42,0.59c0.04,0.22-0.06,0.4-0.29,0.56c-0.07,0.05-0.15,0.08-0.26,0.11
		c-0.14,0.03-0.33,0.02-0.57-0.03c-0.23-0.05-0.41-0.08-0.52-0.1c-0.23-0.03-0.6,0-1.1,0.1c-0.47,0.09-0.81,0.17-1.02,0.25
		c0.7,6.24,0.51,11.91-0.57,17c-1.31,5.88-3.45,9.72-6.42,11.51c-0.5,0.32-1.02,0.53-1.56,0.63c-0.72,0.14-1.43,0.08-2.13-0.18
		c-0.7-0.26-1.29-0.68-1.78-1.26c-1.14-1.31-1.91-2.99-2.3-5.04c-0.49-2.55-0.46-5.17,0.07-7.85c0.53-2.67,1.5-5.13,2.9-7.38
		c1.2-1.91,2.48-3.51,3.84-4.81c1.29-1.25,3.05-2.48,5.28-3.69l-0.51-2.7c-0.73-3.82-1.57-6.86-2.52-9.14
		c-0.72-1.62-1.57-2.93-2.57-3.93c-0.99-1.01-2.21-1.46-3.65-1.38c-0.22,0.01-0.55,0.05-0.98,0.13c-2.34,0.45-4.8,2.01-7.38,4.71
		c-2.23,2.4-3.85,5.25-4.87,8.54c-0.23,0.75-0.46,1.9-0.69,3.43c-0.02,0.3-0.09,0.72-0.21,1.27c-0.06,0.46-0.27,0.72-0.63,0.79
		c-0.22,0.04-0.41-0.01-0.59-0.17c-0.18-0.15-0.28-0.38-0.3-0.67c-0.29-1.51-0.07-3.49,0.66-5.94c0.52-1.78,1.23-3.42,2.14-4.94
		c1.81-3.03,4.03-5.35,6.67-6.98c1.55-1.04,3.07-1.7,4.55-1.98c1.65-0.31,3.22-0.11,4.7,0.61c1.32,0.68,2.42,1.64,3.29,2.87
		c0.87,1.23,1.65,2.7,2.35,4.39c0.89,2.14,1.57,4.44,2.04,6.89l0.3,1.57c0.05,0.44,0.15,1.09,0.32,1.95
		c1.22-0.23,2.28-0.27,3.17-0.1C39.4,45.7,39.63,45.82,39.87,46z M34.3,53.33c-0.01-1.04-0.1-2.59-0.27-4.65l-1.1,0.71l-1.28,0.92
		c-0.86,0.76-1.57,1.44-2.13,2.03c-1.08,1.18-2.06,2.52-2.93,4.03c-0.87,1.51-1.56,3.09-2.06,4.75c-0.5,1.66-0.79,3.32-0.84,4.97
		c-0.05,1.69,0.04,3.16,0.28,4.42c0.08,0.43,0.17,0.77,0.25,1.02c0.22,0.96,0.58,1.81,1.07,2.54c0.49,0.73,1.17,1.01,2.03,0.84
		c1.01-0.19,2.02-1.04,3.04-2.54c0.87-1.28,1.58-2.78,2.11-4.49c0.97-2.94,1.54-6.5,1.72-10.67C34.32,55.47,34.35,54.18,34.3,53.33z
		"/>
	<path class="st0" d="M48.58,46.36c0.1,0.5-0.11,1.19-0.61,2.07c-0.63,1.02-1.41,1.88-2.36,2.6c-0.94,0.72-1.96,1.18-3.04,1.39
		c-1.55,0.29-2.73,0.04-3.56-0.78c-0.47-0.51-0.78-1.17-0.94-2c-0.08-0.43-0.11-0.87-0.08-1.33c0.08-0.57,0.25-1.11,0.51-1.61
		c0.26-0.5,0.6-0.9,1.03-1.2c0.4-0.26,0.79-0.43,1.19-0.51c0.86-0.16,1.58-0.04,2.14,0.38c0.39,0.26,0.61,0.57,0.68,0.93
		c0.1,0.5-0.07,1.08-0.51,1.72c-0.63,0.83-1.32,1.31-2.07,1.46c-0.43,0.08-0.83,0.06-1.19-0.05c0.18,0.56,0.49,0.93,0.91,1.11
		c0.43,0.18,0.93,0.21,1.5,0.11c0.32-0.06,0.72-0.21,1.2-0.45c0.95-0.48,1.77-1.1,2.44-1.86c0.28-0.28,0.55-0.61,0.79-0.99
		c0.24-0.38,0.34-0.72,0.28-1c-0.04-0.22,0-0.39,0.12-0.53c0.12-0.14,0.27-0.22,0.46-0.25c0.29-0.05,0.54-0.01,0.75,0.14
		C48.41,45.85,48.53,46.07,48.58,46.36z M39.72,47.71c0.21,0.11,0.45,0.14,0.74,0.08c0.25-0.05,0.54-0.21,0.86-0.47
		c0.32-0.27,0.51-0.54,0.57-0.81c-0.21-0.11-0.46-0.14-0.74-0.08l-0.12-0.03c-0.29,0.06-0.54,0.2-0.76,0.42
		C40.12,46.96,39.93,47.26,39.72,47.71z"/>
	<path class="st0" d="M57.41,44.96c0.2,0.15,0.31,0.33,0.36,0.55s-0.01,0.42-0.16,0.62c-0.15,0.2-0.39,0.33-0.71,0.39
		c-1.15,0.22-2.35,1.06-3.6,2.53c0.39,0.26,0.62,0.59,0.69,0.99c0.13,0.68-0.12,1.41-0.76,2.19c-0.64,0.77-1.3,1.23-1.98,1.36
		c-0.47,0.09-0.87,0.03-1.21-0.19c-0.34-0.22-0.55-0.52-0.62-0.92c-0.05-0.25-0.03-0.46,0.05-0.62c0.01-0.15,0.09-0.45,0.25-0.89
		c0.16-0.44,0.35-0.85,0.58-1.23c-0.77-0.3-1.38-0.67-1.83-1.11c-0.46-0.44-0.75-1.01-0.89-1.73c-0.12-0.65-0.05-1.38,0.23-2.2
		c0.27-0.82,0.67-1.44,1.18-1.88c0.09-0.09,0.25-0.16,0.47-0.2c0.18-0.03,0.34-0.01,0.49,0.08c0.15,0.08,0.24,0.23,0.28,0.45
		c0.05,0.25-0.07,0.62-0.35,1.1c-0.28,0.48-0.44,0.8-0.49,0.96c-0.19,0.56-0.25,1.05-0.16,1.49c0.15,0.79,0.87,1.34,2.16,1.66
		c1.66-2.03,3.45-3.23,5.36-3.59C56.98,44.74,57.21,44.81,57.41,44.96z M51.85,51.36c0.34-0.27,0.52-0.54,0.55-0.8
		c0.02-0.08-0.01-0.15-0.09-0.21c-0.09-0.06-0.18-0.08-0.29-0.06c-0.21,0.08-0.4,0.3-0.57,0.67c-0.17,0.37-0.26,0.65-0.26,0.83
		C51.29,51.77,51.51,51.63,51.85,51.36z"/>
	<path class="st0" d="M68.01,42.94c0.47-0.09,0.74,0.05,0.8,0.41c0.03,0.18-0.01,0.36-0.12,0.55c-0.11,0.19-0.31,0.35-0.58,0.47
		c-0.51,0.28-0.92,0.46-1.24,0.52c-1.15,0.22-2.23-0.23-3.22-1.35l-0.48,0.99l-0.55,0.94c-0.62,0.83-1.18,1.44-1.67,1.83
		c-0.52,0.4-1.03,0.64-1.54,0.74c-0.47,0.09-0.91,0.05-1.34-0.11c-0.42-0.16-0.76-0.44-1.03-0.84c-0.3-0.39-0.52-0.96-0.66-1.72
		c-0.12-0.61-0.19-1.4-0.23-2.36c-0.06-0.7,0.13-1.09,0.56-1.17c0.29-0.05,0.52,0.01,0.68,0.21c0.17,0.19,0.24,0.42,0.21,0.69
		c-0.04,0.79,0.06,1.59,0.29,2.41c0.12,0.46,0.27,0.82,0.43,1.07c0.16,0.25,0.4,0.34,0.73,0.28c0.4-0.08,0.87-0.44,1.41-1.11
		c0.54-0.66,1.03-1.37,1.44-2.12c0.11-0.21,0.26-0.55,0.45-1.04c0.19-0.48,0.43-0.83,0.73-1.03l0.31-0.12
		c0.22-0.04,0.42,0,0.61,0.14c0.19,0.13,0.36,0.29,0.51,0.49c0.15,0.2,0.31,0.48,0.47,0.86c0.17,0.38,0.38,0.66,0.63,0.83
		c0.26,0.18,0.56,0.23,0.93,0.16c0.32-0.06,0.65-0.22,0.97-0.47C67.67,43.02,67.83,42.97,68.01,42.94z"/>
	<path class="st0" d="M77.54,41.13c0.2,0.15,0.31,0.33,0.36,0.55c0.04,0.22-0.01,0.42-0.16,0.62s-0.39,0.33-0.71,0.39
		c-1.15,0.22-2.35,1.06-3.6,2.53c0.39,0.26,0.62,0.59,0.69,0.99c0.13,0.68-0.12,1.41-0.76,2.19c-0.64,0.77-1.3,1.23-1.98,1.36
		c-0.47,0.09-0.87,0.02-1.21-0.19c-0.34-0.22-0.55-0.52-0.62-0.92c-0.05-0.25-0.03-0.46,0.05-0.62c0.01-0.15,0.09-0.45,0.25-0.89
		c0.16-0.44,0.35-0.85,0.58-1.23c-0.77-0.3-1.38-0.67-1.83-1.11c-0.46-0.44-0.75-1.01-0.89-1.73c-0.12-0.65-0.05-1.38,0.23-2.2
		c0.27-0.82,0.67-1.44,1.18-1.88c0.09-0.09,0.25-0.16,0.47-0.2c0.18-0.03,0.34-0.01,0.49,0.07c0.15,0.08,0.24,0.23,0.28,0.45
		c0.05,0.25-0.07,0.62-0.35,1.1c-0.28,0.48-0.44,0.8-0.49,0.96c-0.19,0.56-0.25,1.05-0.16,1.49c0.15,0.79,0.87,1.34,2.16,1.66
		c1.67-2.03,3.45-3.23,5.36-3.59C77.12,40.91,77.34,40.98,77.54,41.13z M71.99,47.53c0.34-0.27,0.52-0.54,0.55-0.8
		c0.02-0.08-0.01-0.15-0.09-0.21c-0.09-0.06-0.18-0.08-0.29-0.06c-0.21,0.08-0.4,0.3-0.57,0.67s-0.26,0.65-0.26,0.83
		C71.43,47.94,71.65,47.8,71.99,47.53z"/>
</g>
<g>
	<path class="st0" d="M120.75,57.58c-0.13,0.32-0.38,0.51-0.74,0.58c-0.43,0.08-0.75-0.02-0.96-0.31c-0.21-0.29-0.37-0.6-0.49-0.94
		c-0.12-0.34-0.2-0.55-0.25-0.65c-1.58-4.33-2.92-8.8-4.02-13.41c-1.1-4.61-2.26-10.11-3.47-16.5c-0.68,1.64-1.51,3.94-2.49,6.91
		c-0.8,2.49-1.41,4.83-1.85,7.04c-0.33,1.88-0.6,3.7-0.81,5.46l-0.13,1.21c-0.03,0.21-0.06,0.53-0.1,0.95
		c-0.04,0.42-0.08,0.77-0.13,1.05c-0.02,0.07-0.06,0.39-0.13,0.95c-0.07,0.56-0.23,1.05-0.49,1.48c-0.23,0.42-0.49,0.66-0.79,0.72
		c-0.46,0.09-0.89-0.15-1.29-0.71c-0.4-0.56-0.83-1.27-1.31-2.14c-0.94-1.88-1.8-3.89-2.59-6.04c-1.16-3.21-2.47-7.5-3.94-12.88
		c-0.41-1.43-0.99-3.58-1.74-6.46l-0.87-3.23l-0.44-1.25c-0.06-0.16-0.15-0.33-0.25-0.52c-0.1-0.19-0.17-0.34-0.19-0.48
		c-0.56,1.38-1.02,2.82-1.36,4.32c-0.35,1.51-0.68,3.3-1.01,5.39c-0.58,3.61-0.99,7.03-1.24,10.27c-0.21,2.85-0.34,5.7-0.38,8.54
		c-0.04,2.84-0.06,6.35-0.05,10.53c0,0.38,0,1.05,0,2.03c0,0.98-0.03,1.85-0.09,2.62c-0.01,0.11-0.05,0.41-0.11,0.92
		c-0.06,0.51-0.19,0.94-0.4,1.29c-0.21,0.35-0.48,0.55-0.81,0.62c-0.43,0.08-0.77-0.11-1.04-0.58c-0.26-0.47-0.51-1.04-0.74-1.71
		c-0.48-1.28-0.85-2.46-1.09-3.55c-0.71-2.64-1.32-5.34-1.85-8.09c-0.57-2.98-1.12-6.51-1.66-10.59c-0.37-2.64-0.69-5.79-0.97-9.44
		l-0.23-2.27c-0.01-0.24-0.04-0.57-0.09-0.99c-0.05-0.42-0.06-0.75-0.04-1c0.03-0.38,0.19-0.6,0.49-0.66c0.2-0.04,0.39,0,0.56,0.12
		s0.29,0.3,0.33,0.53c0.25,0.77,0.45,1.54,0.59,2.31c0.21,1.09,0.37,2.19,0.47,3.3c0.06,0.33,0.12,0.83,0.18,1.51
		c1.03,6.87,2.12,13.28,3.25,19.24c0.54,2.85,0.96,4.98,1.27,6.39c0.02-0.42,0-1.46-0.08-3.12c-0.07-0.74-0.11-1.28-0.1-1.63
		c-0.06-1.02-0.11-2.55-0.16-4.6c-0.04-3.25,0.02-6.11,0.17-8.57c0.32-6.27,1.02-11.75,2.12-16.46c0.65-2.87,1.38-5.06,2.19-6.59
		c0.31-0.54,0.59-0.95,0.84-1.24c0.25-0.29,0.55-0.46,0.88-0.53c0.5-0.09,0.9,0.02,1.22,0.33c0.32,0.32,0.62,0.76,0.89,1.32
		c0.44,0.88,0.83,1.78,1.16,2.71c0.33,0.93,0.62,1.82,0.87,2.66c0.25,0.85,0.41,1.4,0.49,1.66l2.32,8.15c1.08,3.67,2,6.7,2.78,9.09
		c0.78,2.39,1.68,4.74,2.71,7.05c0.1-1.25,0.16-2.21,0.17-2.86c0.07-1.45,0.13-2.55,0.2-3.28c0.22-2.27,0.62-4.51,1.19-6.71
		c1.16-4.37,2.59-8.12,4.29-11.26c0.05-0.08,0.16-0.28,0.32-0.6c0.16-0.32,0.35-0.59,0.57-0.8c0.22-0.21,0.45-0.31,0.69-0.29
		c0.38,0.03,0.67,0.2,0.87,0.5c0.2,0.31,0.38,0.73,0.55,1.28c0.32,0.97,0.71,2.46,1.16,4.46l0.41,1.62l0.78,3.3
		c1.31,5.27,2.37,9.41,3.16,12.41c0.79,3,1.73,6.05,2.79,9.14C120.88,56.95,120.88,57.27,120.75,57.58z M91.69,18.02l-0.07,0.17
		C91.65,18.18,91.68,18.13,91.69,18.02z"/>
	<path class="st0" d="M124.03,39.8c0.04,0.2,0.02,0.4-0.07,0.6c-0.08,0.2-0.2,0.32-0.37,0.35c-0.23,0.04-0.42-0.01-0.57-0.15
		c-0.15-0.14-0.26-0.31-0.35-0.5c-0.09-0.19-0.15-0.31-0.2-0.37c-0.31-0.52-0.56-1.04-0.76-1.55c-0.01,0.14-0.08,0.32-0.2,0.55
		c-0.13,0.23-0.22,0.4-0.26,0.51c-0.44,0.91-0.81,1.58-1.11,2.01c-0.72,1.06-1.42,1.66-2.08,1.79c-0.36,0.07-0.73-0.03-1.09-0.31
		c-0.28-0.22-0.47-0.56-0.56-1.03c-0.18-0.93,0.03-2.08,0.63-3.46c0.19-0.45,0.36-0.81,0.52-1.08c0.15-0.27,0.37-0.48,0.65-0.64
		c0.25-0.15,0.48-0.25,0.72-0.29c0.5-0.09,0.94-0.01,1.34,0.26c0.16-0.58,0.27-1.01,0.32-1.3c0.02-0.07,0.04-0.16,0.05-0.27
		c0.01-0.1,0.05-0.19,0.11-0.25c0.06-0.06,0.13-0.1,0.23-0.12l0.5-0.09c0.36-0.07,0.64-0.07,0.82,0c0.08,0.09,0.15,0.3,0.2,0.63
		c0.05,0.33,0.08,0.53,0.09,0.6c0.11,0.56,0.21,0.99,0.3,1.28c0.28,1.11,0.63,1.94,1.04,2.48L124.03,39.8z M119.91,37.91l-0.01-0.05
		c-0.02-0.1-0.09-0.17-0.22-0.22c-0.13-0.04-0.26-0.05-0.39-0.03c-0.2,0.04-0.35,0.19-0.45,0.47c-0.1,0.28-0.17,0.44-0.19,0.47
		l-0.5,1.43c-0.01,0.14-0.06,0.38-0.15,0.72c-0.09,0.34-0.11,0.61-0.08,0.81l0.11-0.23c0.26-0.43,0.62-1.06,1.08-1.9
		c0.14-0.34,0.32-0.66,0.53-0.98L119.91,37.91z"/>
	<path class="st0" d="M131.04,32.96c0.18,0.14,0.29,0.31,0.33,0.5c0.08,0.4-0.12,0.64-0.58,0.73c-0.13,0.02-0.28,0.03-0.44,0.01
		c-0.16-0.02-0.31,0.02-0.47,0.12c-0.31,0.19-0.65,0.48-1.02,0.86c-0.54,0.62-0.97,1.38-1.31,2.28c-0.34,0.91-0.46,1.71-0.36,2.41
		c0.11,0.56,0.15,0.98,0.13,1.24c-0.02,0.26-0.19,0.42-0.52,0.49c-0.4,0.08-0.68-0.01-0.85-0.25c-0.17-0.24-0.31-0.59-0.43-1.05
		c-0.14-0.56-0.32-1.43-0.55-2.62c-0.24-1.26-0.38-2.38-0.43-3.36c-0.01-0.24,0-0.44,0.04-0.6c0.04-0.16,0.13-0.29,0.29-0.39
		l0.24-0.1c0.26-0.05,0.47,0.05,0.62,0.29c0.18,0.21,0.32,0.61,0.43,1.2l0.29,1.54c0.41-0.93,0.95-1.73,1.63-2.39
		c0.68-0.66,1.46-1.02,2.34-1.09C130.65,32.76,130.86,32.83,131.04,32.96z"/>
	<path class="st0" d="M131.05,31.01c-0.04-0.23-0.06-0.49-0.04-0.77c0.02-0.28,0.01-0.46,0-0.56c-0.03-0.13-0.07-0.4-0.13-0.8
		c-0.06-0.4-0.08-0.76-0.05-1.1c0.02-0.33,0.12-0.56,0.3-0.7c0.12-0.09,0.21-0.14,0.28-0.16c0.2-0.04,0.38,0.03,0.55,0.2
		c0.17,0.17,0.26,0.38,0.27,0.62c0.06,0.33,0.12,0.83,0.18,1.51c0.07,0.74,0.14,1.26,0.19,1.56c0.01,0.24-0.04,0.46-0.15,0.67
		c-0.11,0.21-0.27,0.33-0.47,0.37C131.49,31.95,131.18,31.67,131.05,31.01z M137.3,35.99c0.2-0.04,0.4,0.01,0.59,0.15
		c0.2,0.13,0.32,0.33,0.37,0.6c0.04,0.2,0.03,0.41-0.04,0.62c-0.06,0.22-0.27,0.55-0.63,0.99c-0.22,0.32-0.45,0.6-0.71,0.86
		c-0.23,0.25-0.56,0.5-0.99,0.75c-0.13,0.06-0.31,0.11-0.54,0.15c-1.19,0.23-2.03-0.16-2.51-1.17c-0.48-1.01-0.84-2.31-1.08-3.91
		c-0.01-0.07-0.09-0.4-0.22-1.01c-0.13-0.61-0.02-1.03,0.35-1.28c0.12-0.09,0.21-0.14,0.28-0.16c0.2-0.04,0.38,0.02,0.55,0.18
		c0.17,0.16,0.27,0.33,0.31,0.53c0.03,0.17,0.15,0.76,0.34,1.79c0.2,1.03,0.48,1.98,0.86,2.87c0.23,0.47,0.5,0.68,0.84,0.61
		c0.33-0.06,0.66-0.31,0.99-0.75c0.33-0.44,0.54-0.84,0.65-1.2C136.83,36.25,137.03,36.04,137.3,35.99z"/>
	<path class="st0" d="M144.58,35.89c0.04,0.2,0.02,0.4-0.07,0.6c-0.08,0.2-0.2,0.32-0.37,0.35c-0.23,0.04-0.42-0.01-0.57-0.15
		c-0.15-0.14-0.27-0.31-0.35-0.5c-0.09-0.19-0.15-0.31-0.2-0.37c-0.31-0.52-0.56-1.04-0.76-1.55c-0.01,0.14-0.08,0.32-0.2,0.55
		c-0.13,0.23-0.21,0.4-0.26,0.51c-0.44,0.91-0.81,1.58-1.11,2.01c-0.72,1.06-1.42,1.66-2.08,1.79c-0.37,0.07-0.73-0.03-1.09-0.31
		c-0.28-0.22-0.47-0.56-0.56-1.03c-0.18-0.93,0.03-2.08,0.63-3.46c0.19-0.45,0.36-0.81,0.52-1.08c0.15-0.27,0.37-0.48,0.65-0.64
		c0.25-0.15,0.48-0.25,0.72-0.29c0.5-0.09,0.94-0.01,1.34,0.26c0.16-0.58,0.27-1.01,0.32-1.3c0.02-0.07,0.04-0.16,0.05-0.27
		c0.01-0.1,0.05-0.19,0.11-0.25c0.06-0.06,0.14-0.1,0.23-0.12l0.5-0.09c0.36-0.07,0.64-0.07,0.82,0c0.08,0.09,0.15,0.3,0.2,0.63
		c0.05,0.33,0.08,0.53,0.09,0.6c0.11,0.56,0.21,0.99,0.3,1.28c0.28,1.11,0.63,1.94,1.04,2.48L144.58,35.89z M140.47,34l-0.01-0.05
		c-0.02-0.1-0.09-0.17-0.22-0.22c-0.13-0.04-0.26-0.05-0.39-0.03c-0.2,0.04-0.35,0.19-0.45,0.47c-0.1,0.28-0.17,0.44-0.19,0.47
		l-0.5,1.43c-0.01,0.14-0.06,0.38-0.15,0.72c-0.09,0.34-0.11,0.61-0.08,0.81l0.11-0.23c0.26-0.43,0.62-1.06,1.08-1.9
		c0.14-0.34,0.32-0.66,0.53-0.98L140.47,34z"/>
</g>
<g>
	<path class="st0" d="M180.44,39.25c0.32-0.06,0.62-0.02,0.89,0.14c0.27,0.15,0.44,0.39,0.5,0.71c0.05,0.25,0.01,0.47-0.1,0.66
		c-0.11,0.19-0.29,0.4-0.55,0.63c-0.39,0.3-0.76,0.58-1.12,0.85c-0.36,0.27-0.7,0.53-1.02,0.78c-3.8,2.88-6.55,4.89-8.27,6.03
		c-1.65,1.09-3.18,2-4.61,2.72c-1.42,0.72-2.83,1.21-4.23,1.47c-2.47,0.47-4.61,0.08-6.41-1.18c-1.71-1.16-3.14-2.95-4.31-5.36
		c-1.24-2.44-2.19-5.38-2.85-8.82c-0.95-5.02-1.36-11.03-1.21-18.05c0.09-2.84,0.33-5.89,0.71-9.16c0.04-0.19,0.11-0.69,0.22-1.49
		c0.11-0.8,0.35-1.48,0.73-2.03c0.17-0.26,0.37-0.4,0.58-0.44c0.18-0.03,0.35,0.01,0.52,0.12s0.27,0.26,0.31,0.44
		c0.04,0.21-0.01,0.43-0.16,0.64c0.02,0.11-0.01,0.3-0.09,0.57c-0.08,0.27-0.1,0.48-0.08,0.63c-0.1,0.46-0.15,1-0.17,1.62
		c-0.01,0.62-0.03,1.06-0.06,1.32c-0.08,0.94-0.13,1.77-0.14,2.48c-0.01,0.71-0.03,1.29-0.06,1.74c-0.04,3.13,0,5.83,0.1,8.11
		c0.16,5.36,0.6,9.88,1.3,13.57c0.53,2.8,1.22,5.25,2.07,7.35c1.01,2.37,2.17,4.06,3.47,5.08c1.31,1.05,2.92,1.39,4.82,1.03
		c1.08-0.21,2.15-0.6,3.23-1.17c1.08-0.58,2.26-1.28,3.55-2.12c4.26-2.97,8.2-5.83,11.79-8.6
		C180.02,39.39,180.23,39.29,180.44,39.25z"/>
	<path class="st0" d="M182.27,30.43c0.04,0.21,0.02,0.43-0.07,0.65c-0.09,0.22-0.22,0.35-0.4,0.38c-0.25,0.05-0.46,0-0.62-0.16
		c-0.16-0.15-0.29-0.33-0.38-0.54c-0.09-0.21-0.17-0.34-0.22-0.41c-0.33-0.57-0.6-1.13-0.82-1.68c-0.01,0.15-0.08,0.35-0.22,0.6
		s-0.23,0.44-0.28,0.56c-0.48,0.98-0.88,1.71-1.2,2.18c-0.78,1.15-1.53,1.8-2.25,1.93c-0.39,0.08-0.79-0.03-1.18-0.33
		c-0.3-0.24-0.51-0.61-0.6-1.11c-0.19-1,0.04-2.25,0.68-3.75c0.2-0.48,0.39-0.87,0.56-1.16c0.17-0.29,0.4-0.52,0.7-0.69
		c0.27-0.16,0.53-0.27,0.78-0.31c0.54-0.1,1.02-0.01,1.45,0.28c0.18-0.63,0.29-1.1,0.35-1.4c0.02-0.08,0.04-0.17,0.06-0.29
		c0.01-0.11,0.05-0.21,0.12-0.27c0.06-0.07,0.15-0.11,0.25-0.13l0.54-0.1c0.39-0.07,0.69-0.08,0.89,0c0.09,0.09,0.16,0.32,0.21,0.68
		s0.08,0.58,0.1,0.65c0.12,0.61,0.22,1.07,0.32,1.39c0.3,1.21,0.68,2.1,1.12,2.68L182.27,30.43z M177.82,28.38l-0.01-0.05
		c-0.02-0.11-0.1-0.18-0.24-0.23c-0.14-0.05-0.28-0.06-0.42-0.03c-0.21,0.04-0.38,0.21-0.49,0.51c-0.11,0.3-0.18,0.47-0.21,0.51
		l-0.54,1.55c-0.01,0.15-0.06,0.41-0.16,0.78c-0.1,0.37-0.12,0.67-0.08,0.88l0.12-0.25c0.28-0.46,0.67-1.15,1.17-2.06
		c0.15-0.36,0.35-0.71,0.58-1.06L177.82,28.38z"/>
	<path class="st0" d="M191.34,25.81c0.2,0.15,0.31,0.33,0.35,0.55c0.04,0.21-0.01,0.42-0.16,0.62c-0.15,0.2-0.38,0.32-0.71,0.38
		c-1.15,0.22-2.34,1.06-3.59,2.52c0.38,0.26,0.61,0.59,0.69,0.98c0.13,0.68-0.12,1.41-0.76,2.18s-1.29,1.22-1.97,1.35
		c-0.47,0.09-0.87,0.03-1.21-0.19c-0.34-0.21-0.54-0.52-0.62-0.91c-0.05-0.25-0.03-0.46,0.05-0.62c0.01-0.15,0.09-0.44,0.25-0.88
		c0.16-0.44,0.35-0.85,0.58-1.22c-0.76-0.3-1.37-0.67-1.83-1.1c-0.45-0.43-0.75-1.01-0.89-1.73c-0.12-0.64-0.05-1.37,0.22-2.19
		c0.27-0.81,0.66-1.44,1.18-1.87c0.09-0.09,0.25-0.16,0.46-0.2c0.18-0.03,0.34-0.01,0.49,0.07c0.15,0.08,0.24,0.23,0.28,0.45
		c0.05,0.25-0.07,0.62-0.35,1.1c-0.28,0.48-0.44,0.8-0.49,0.96c-0.19,0.56-0.25,1.05-0.16,1.48c0.15,0.79,0.87,1.34,2.15,1.65
		c1.66-2.02,3.44-3.22,5.34-3.58C190.92,25.59,191.14,25.66,191.34,25.81z M185.81,32.18c0.34-0.27,0.52-0.53,0.54-0.8
		c0.02-0.08-0.01-0.15-0.09-0.2c-0.09-0.06-0.18-0.08-0.29-0.06c-0.21,0.08-0.4,0.3-0.57,0.67c-0.17,0.37-0.26,0.64-0.26,0.83
		C185.25,32.6,185.47,32.45,185.81,32.18z"/>
	<path class="st0" d="M200.1,24.14c0.2,0.15,0.31,0.33,0.35,0.55c0.04,0.21-0.01,0.42-0.16,0.62c-0.15,0.2-0.38,0.32-0.71,0.38
		c-1.15,0.22-2.34,1.06-3.59,2.52c0.38,0.26,0.61,0.59,0.69,0.98c0.13,0.68-0.12,1.41-0.75,2.18c-0.63,0.77-1.29,1.22-1.97,1.35
		c-0.47,0.09-0.87,0.03-1.21-0.19c-0.34-0.21-0.54-0.52-0.62-0.91c-0.05-0.25-0.03-0.46,0.05-0.62c0.01-0.15,0.09-0.44,0.25-0.88
		c0.16-0.44,0.35-0.85,0.57-1.22c-0.76-0.3-1.37-0.67-1.83-1.1c-0.45-0.43-0.75-1.01-0.88-1.73c-0.12-0.64-0.05-1.37,0.22-2.19
		c0.27-0.81,0.66-1.44,1.18-1.87c0.09-0.09,0.25-0.16,0.46-0.2c0.18-0.03,0.34-0.01,0.49,0.07c0.15,0.08,0.24,0.23,0.28,0.45
		c0.05,0.25-0.07,0.62-0.35,1.1c-0.28,0.48-0.44,0.8-0.49,0.96c-0.19,0.56-0.25,1.05-0.16,1.48c0.15,0.79,0.87,1.34,2.15,1.65
		c1.66-2.02,3.44-3.22,5.34-3.58C199.68,23.93,199.91,23.99,200.1,24.14z M194.57,30.52c0.34-0.27,0.52-0.54,0.54-0.8
		c0.02-0.08-0.01-0.15-0.09-0.2c-0.09-0.06-0.18-0.08-0.29-0.06c-0.21,0.08-0.4,0.3-0.57,0.67c-0.17,0.37-0.26,0.64-0.26,0.83
		C194.01,30.93,194.24,30.78,194.57,30.52z"/>
	<path class="st0" d="M205.47,23.23l0.09,0.48c0.07,1.36-0.13,2.51-0.62,3.46c-0.09,0.13-0.15,0.26-0.2,0.4
		c-0.05,0.14-0.12,0.27-0.2,0.4c-0.57,1.11-1.27,1.84-2.09,2.18l-0.48,0.09c-0.42-0.03-0.74-0.1-0.99-0.2
		c-0.32-0.12-0.57-0.35-0.74-0.67c-0.17-0.32-0.26-0.52-0.28-0.59l-0.16-0.53c-0.23-1.03-0.33-2.33-0.3-3.9
		c0.05-0.9,0.13-1.63,0.22-2.19c0.1-0.56,0.26-1.1,0.5-1.63c0.15-0.36,0.37-0.57,0.66-0.63c0.11-0.02,0.26,0.01,0.46,0.08
		c0.45-0.2,0.87-0.2,1.28-0.02c0.41,0.18,0.85,0.47,1.33,0.86l0.34,0.32C204.91,21.84,205.3,22.52,205.47,23.23z M202.66,27.5
		c-0.49-0.24-0.92-0.53-1.28-0.87c0.03,0.37,0.12,0.91,0.25,1.62c0.04,0.03,0.08,0.11,0.1,0.23s0.06,0.2,0.1,0.23l0.1-0.07
		C202.15,28.42,202.39,28.03,202.66,27.5z M203.97,23.85c-0.08-0.43-0.26-0.83-0.54-1.21c-0.28-0.37-0.57-0.66-0.89-0.86
		c-0.32-0.2-0.54-0.27-0.68-0.21c-0.12,0.17-0.19,0.47-0.22,0.9c-0.03,0.43,0,0.88,0.09,1.35c0.05,0.25,0.14,0.55,0.28,0.89
		c0.14,0.35,0.4,0.63,0.78,0.86c0.38,0.22,0.59,0.35,0.63,0.38C203.92,25.24,204.1,24.53,203.97,23.85z"/>
</g>
<g>
	<g>
		<path class="st1" d="M60.52,38.77c0.54-1.09,1.09-2.18,1.63-3.27c0.65-1.29-1.29-2.43-1.94-1.14c-0.54,1.09-1.09,2.18-1.63,3.27
			C57.93,38.92,59.87,40.06,60.52,38.77L60.52,38.77z"/>
	</g>
</g>
<g>
</g>
<g>
</g>
<g>
</g>
<g>
</g>
<g>
</g>
<g>
</g>
</svg>
