<?xml version="1.0" encoding="UTF-8"?>
<svg width="765" height="990" fill-rule="evenodd" image-rendering="optimizeQuality" shape-rendering="geometricPrecision" text-rendering="geometricPrecision" viewBox="0 0 8.5 11" xmlns="http://www.w3.org/2000/svg">
 <path d="m2.14492,7.57026h1.88593c-.04206-.06206-.65216-.13603-.92743-.79431l.03994-.04882v-.02218c-.37958-.25383-.355-.54603-.355-.97625v-.31063c0-.67278.07153-1.12934-.01466-1.8269-.0735-.59486-.16284-1.16396-.16284-1.76747v-.24406c0-.84481.59729-.77656 1.33124-.77656h.31617c.54083,0 1.2875-.07954 1.34789.57687 .80665.39294.90058.85122.82439,1.7119-.06596.7452-.33627,1.53868-.33627,2.25966v.44375c0,.75275.20758,1.54993-.68781,1.775h1.17594v-7.14437h-4.43749v7.14437z" fill="#fefefe"/>
 <path d="m3.9421,6.15026c0-.10693.06944-.1775.1775-.1775s.15531.04814.15531.15532-.03814.1775-.15531.1775c-.10081,0-.1775-.0481-.1775-.15532zm.86531-.1775c.25758,0 .21816.33249 0,.33249-.23751,0-.22388-.33249 0-.33249zm-.06453-3.13722 .08632-.01604 .1779.00263 .09405.01284c.01096.03893.02452.05451.01689.0981l-.01284.09404-.09748.02042-.17811-.00352-.08513-.01324-.00159-.19523zm-.80078-.01341 .07611.00895 .01528.07939-.00263.02259-.00894.0761-.0794.01528-.20009-.00263-.08479-.01322-.00169-.17305 .08607-.01606 .20009.00263zm-.46064.01284c.01097.03893.02453.05451.01689.0981l-.01284.09404-.09748.02042-.15593-.00352-.10395-.01742-.00594-.19077 .08729-.01633 .1779.00263 .09404.01284zm.7303.00067 .08494-.01615 .1779.00263 .0761.00895-.02304.14545-.3138-.03444-.0021-.10645zm-.46935-1.36695h-.66562c-.04033.0616-.04437.05468-.04437.13313v.84313l.00894.0761 .03543-.03173c0-.24609-.13735-.97625.19969-.97625h.02219 1.59749 .04438c.33602,0 .19969.73391.19969.97625-.23972.22128-.89413.13313-1.22031.13313-.20961,0-.46085-.01316-.66562.01258-.13078.01645.29181.03189.31048.03188 .39723-.00038.96984-.03362 1.34698.0083 .04165.00463-.07902.01015-.08174.01025l-.33322.00354-.66802.0102h-.05577c-.18727,0-.44139.01541-.58691.13904-.05994.05092-.19936.26191-.1047.29932 .06066.02397.17254-.0723.2272-.02973 .03439.02678-.14799.08641-.19046.1512-.11423.17427 1.00468-.11271 1.1124.31748l.13156.13028-.0153.0164-.18035-.12203c-.00645.12245.09943.16263-.01505.38432-.06511.12608-.10748.29116-.1675.38718-.03264.05222-.30787.72743-.30833.75612l.06685.00085c.08557-.3421.36337-.19384.50016-.44457 .07565-.13867.21648-.23275.19163-.40256-.02221-.15171.29051-.00806.00823.43765-.17211.27176-.30788.30898-.58908.40948l-.00444.03994c-.42696.03594-.35943-.06591-.66119-.15087l-.02219.03698c.13027.33072-.07681.18048-.01478.38705 .0465-.01038.23259-.14219.20708.13066l-.03157.01922-.10841-.14096 .06002.35928 .09793-.11271 .03161-.00047 .04657.25282c.31692.27529-.02011.4694-.19969.26626-.03148-.05402-.03994-.04796-.04983-.11234-.00185-.01205-.01872-.12122-.0277-.12192-.00011-1.1811e-005-.05903.23465-.06748.20881-.06421-.19634-.07135-1.05361-.05976-1.29154 .00744-.15273-.01414-.259.02813-.41476 .02409-.08873.10883-.06982.11245.0162 .01411.33438.15049.07697.21389-.03647 .13787-.24669-.08456-.08509-.17876-.19794-.17932-.2148.00874-.55149.24201-.65506 .07808-.03466.39644-.11129.44511-.00687 .03096.06642-.11656.34524-.14909.43616-.12336.34465-.17132.73759-.44239.99978 .14751-.04623.23022.06767.30217-.07492 .04854-.09619.09639-.26675.13561-.37479 .0952-.26224.18572-.47122.29536-.72537 .1464-.33934-.09359-.44331-.40093-.40014-.38125.05354-.40379.15167-.66502.3771-.01624.16617-.10049.27059-.10049.47116v.03915c0,.21507.10088.39942.10051.70998-.00033.28024.0128.53434.02993.81319 .04638.75509.17393.73995.9463.73995h.37718c.24087,0 .61703-.00293.77656-.19969 .05468-.74362.04394-1.49583.04426-2.24105 .0003-.71054.17762-1.37457.17762-2.08551v-.44374c0-.49898-.02281.30444-.0265.39505-.00641.15729-.08443.82701-.08443.27057l.00289-.68804-.02508-.3104-.08689.11218-.09818-.053-.47706.02635c-.20797.12869-.51858.06978-.80224.06978z" fill="#454e51"/>
 <path d="m5.11804,6.41651c-.15953.19676-.53569.19969-.77656.19969h-.37718c-.77237,0-.89992.01514-.9463-.73995-.01713-.27886-.03026-.53295-.02993-.81319 .00037-.31056-.10051-.49492-.10051-.70998v-.03915c0-.20056.08425-.30498.10049-.47116l-.18759-1.59626 .01009-.79999 .06656-.42156 1.1747-.14509 .17873.01196 1.13156.13313 .05023.5098-.00586.44426c0,.71841-.19341,1.44269-.22026,2.1538-.02402.63604.07462,1.71005-.06817,2.2837zm-1.97468.28844 .19898.02757 .04508.03899h.39937 .37718c.52999,0 1.22031.0494 1.22031-.64343v-.97625l-.0236-.57681 .00142-.48819c0-.50937.12095-.77923.17824-1.24175 .05554-.44834.06582-.90262.06582-1.35419v-.11094c-.06039-.65641-.80705-.57687-1.34789-.57687h-.31617c-.73395,0-1.33124-.06825-1.33124.77656v.24406c0,.60351.08934,1.17261.16284,1.76747 .08619.69756.01466,1.15412.01466,1.8269v.31063c0,.43022-.02457.72242.355.97625z" fill="#fcb917"/>
 <path d="m5.60616,1.49088 .02219.11094c.42431.24035.46593.67672.46593,1.13156 0,.92528-.34394,1.87754-.31062,2.84l.02338.70996-.00119.19973c0,.79928-.51557.79875-1.17594.79875h-.1775c-.48224,0-1.00339-.16703-1.30906-.55469l-.03994.04882c.27527.65828.88537.73225.92743.79431h1.37562c.89539-.22507.68781-1.02225.68781-1.775v-.44375c0-.72098.27031-1.51446.33627-2.25966 .07619-.86068-.01774-1.31896-.82439-1.7119v.11094z" fill="#e6e7e3"/>
 <path d="m3.38742,6.7715c.32204.27776.59726.355 1.02063.355h.66562c.71138,0 .5325-.55996.5325-1.13156 0-.56272.00561-1.00602.07456-1.56731 .11395-.92756.44466-1.96889-.05237-2.82581l-.02219-.11094c0,.45157-.01028.90584-.06582,1.35419-.0573.46252-.17824.73238-.17824,1.24175l-.00142.48819 .0236.57681v.97625c0,.69283-.69032.64343-1.22031.64343h-.37718-.39937z" fill="#bba47b"/>
 <path d="m3.38742,6.7715-.04508-.03899-.19898-.02757v.02218c.30566.38766.82682.55469 1.30906.55469h.1775c.66037,0 1.17594.00053 1.17594-.79875l.00119-.19973-.02338-.70996c-.03331-.96246.31062-1.91472.31062-2.84 0-.45485-.04163-.89122-.46593-1.13156 .49703.85691.16631,1.89824.05237,2.82581-.06895.56129-.07456,1.0046-.07456,1.56731 0,.5716.17888,1.13156-.5325,1.13156h-.66562c-.42336,0-.69859-.07724-1.02063-.355z" fill="#d2c6b3"/>
 <path d="m4.05304,1.75714 .02962-.03673 .08112-.00946 .06676.00181 .09405.01284 .01689.45309h.08875l.01689-.45309 .09405-.01284 .06718-.00352 .09747.02042 .01284.09404v.31063c0,.07844-.00404.07152-.04437.13312l-.00208.20663-.31617-.00089-.07305-.00202-.21539.00202-.07303-.00154-.21783-.00048h-.0908c-.59122,0-.48647-.23762-.37169-.179 .06508.03324.16152.10875.24168.1013 .00433-.00041.20448-.07322.18648-.12603l-.07591-.03907-.01284-.09405v-.28844c0-.07877.00331-.09086.05302-.14852l.0801-.0068 .04457-.00181 .08112.00946 .02962.03673 .08435.47048 .02659-.4483zm-.71057.02003 .01959.13845c.12055.04902.20286.00078.20286.17433v.02219c0,.07017.0007.06665-.02852.12679-.04646.02259-.04762.02852-.1046.02852-.07018,0-.06665.00071-.12679-.02852-.02923-.06014-.02853-.05661-.02853-.12679v-.24406c0-.06645.0002-.0713.02536-.12995 .04093-.02027.03409-.02536.08558-.02536 .05944,0 .04656-.00702.0934.02779l-.13835.03662zm-.26568.71215c.05468.04348.05968.04437.13313.04437h1.775c.07911,0 .09041-.00333.15531-.04437 0-.24234.13633-.97625-.19969-.97625h-.04438-1.59749-.02219c-.33703,0-.19969.73016-.19969.97625z" fill="#d4ebf5"/>
 <path d="m2.98804,3.84276c.26123-.22543.28377-.32356.66502-.3771 .30735-.04317.54733.0608.40093.40014-.10964.25414-.20017.46313-.29536.72537-.03922.10804-.08706.27861-.13561.37479-.07195.14259-.15466.02868-.30217.07492l-.27076-.19457 .13763.17239c.30176.08497.23423.18682.66119.15087l.00444-.03994h-.11094l-.06685-.00085c.00045-.02869.27569-.7039.30833-.75612 .06002-.09602.10239-.2611.1675-.38718 .11448-.22169.0086-.26187.01505-.38432l.18035.12203 .0153-.0164-.13156-.13028c-.70073-.41169-1.00471.10412-1.16399.09387-.07591-.09524-.16888-.9306-.09868-1.02957 .04651-.06558-.00201-1.00915-.00201-1.17211l.00581-.16456 .23825-.01294 .4654-.07057 1.02116.00401 .51031.08875 .02508.3104-.00289.68804c0,.55644.07802-.11328.08443-.27057 .0037-.09061.0265-.89403.0265-.39505v.44374c0,.71095-.17732,1.37498-.17762,2.08551-.00031.74522.01042,1.49743-.04426,2.24105 .1428-.57366.04415-1.64766.06817-2.2837 .02685-.7111.22026-1.43539.22026-2.1538l.00586-.44426-.05023-.5098-.04739.16306-1.03898-.10483-.37246.00833-1.0234.08954-.00278-.15609-.06656.42156-.01009.79999 .18759,1.59626z" fill="#262927"/>
 <path d="m3.25429,6.21682c-.04152-.1661.0287-.25582.19969-.26626l-.04657-.25282-.03161.00047-.09793.11271-.06002-.35928 .10841.14096 .03157-.01922c.02551-.27285-.16057-.14104-.20708-.13066-.06203-.20657.14505-.05633.01478-.38705l.02219-.03698-.13763-.17239 .27076.19457c.27107-.2622.31903-.65514.44239-.99978 .03254-.09092.18005-.36974.14909-.43616-.04866-.10443-.36703-.0278-.44511.00687-.23326.10358-.42132.44027-.24201.65506 .0942.11285.31664-.04876.17876.19794-.0634.11345-.19978.37085-.21389.03647-.00362-.08602-.08837-.10493-.11245-.0162-.04228.15576-.0207.26204-.02813.41476-.01158.23793-.00444,1.0952.05976,1.29154 .00845.02584.06737-.20882.06748-.20881 .00898.0007.02585.10987.0277.12192 .00988.06438.01834.05831.04983.11234z" fill="#5a6365"/>
 <path d="m4.23054,3.57651c-.10772-.43019-1.22663-.14321-1.1124-.31748 .04247-.06479.22485-.12441.19046-.1512-.05466-.04257-.16655.0537-.2272.02973-.09466-.03741.04476-.2484.1047-.29932 .14552-.12363.39964-.13904.58691-.13904h.05577l.66802-.0102 .33322-.00354c.00272-.00011.12339-.00562.08174-.01025-.37714-.04192-.94975-.00868-1.34698-.0083-.01867,1.1811e-005-.44126-.01543-.31048-.03188 .20477-.02574.45601-.01258.66562-.01258 .32618,0 .98059.08815 1.22031-.13313-.06489.04105-.07619.04437-.15531.04437h-1.775c-.07344,0-.07844-.0009-.13313-.04437l-.03543.03173-.00894-.0761v-.84313c0-.07844.00404-.07152.04437-.13313h-.11094c0,.16296.04852,1.10653.00201,1.17211-.0702.09896.02278.93432.09868,1.02957 .15928.01025.46326-.50555 1.16399-.09387z" fill="#6a7374"/>
 <path d="m2.8771,1.02495 .00278.15609 1.0234-.08953 .37245-.00833 1.03898.10483 .04739-.16306-1.13156-.13313-.17873-.01197z" fill="#6a7374"/>
 <path d="m3.74241,2.26744c.018.05281-.18216.12562-.18648.12603-.08016.00744-.17659-.06807-.24168-.1013-.11478-.05862-.21953.179.37169.179h.0908l.21783.00048 .07303.00154 .21539-.00202 .07305.00202 .31617.00089 .00208-.20663-.20466-.00828-.03941-.08046h-.08875l-.0491.08247-.08382.00809-.04457-.00181-.09404-.01284-.01689-.49747-.02659.4483-.08435-.47048-.01181.20711-.02846.00273-.0433-.16916-.0974-.00944-.02428.01009 .00201.4057 .02227.00985h.09499l.0442-.20048c.04903.05107.04178.03335.04178.0986v.02219c0,.06645-.00021.0713-.02535.12996l-.17433.02535z" fill="#b9cbd2"/>
 <path d="m3.20992,1.2912 .52669.01294 .0058.16456c.28367,0 .59427.05892.80224-.06978l.47706-.02635 .09818.053 .08689-.11218-.51031-.08875-1.02116-.00401-.4654.07057z" fill="#828b8c"/>
 <path d="m3.74241,5.12963h.11094c.2812-.1005.41697-.13772.58908-.40948 .28228-.44571-.03044-.58936-.00823-.43765 .02485.16981-.11598.26388-.19163.40256-.13678.25073-.41458.10247-.50016.44457z" fill="#6a7374"/>
 <path d="m2.9658 1.4687h0.77656l-0.0058-0.16456-0.52669-0.01294-0.23825 0.01294z" fill="#cfa931"/>
 <path d="m3.74241,2.26744 .17433-.02535c.02515-.05866.02535-.0635.02535-.12996v-.02219c0-.06525.00725-.04754-.04178-.0986l-.0442.20048h-.09499l-.02227-.00985-.00201-.4057 .02428-.01009 .0974.00944 .0433.16916 .02846-.00273 .01181-.20711-.02962-.03673-.08112-.00946-.04457.00181-.0801.0068c-.04971.05765-.05302.06975-.05302.14852v.28844l.01284.09405 .07591.03907z" fill="#5a6365"/>
 <path d="m3.9421,6.15026c0,.10721.0767.15532.1775.15532 .11717,0 .15531-.07082.15531-.1775s-.04814-.15532-.15531-.15532-.1775.07057-.1775.1775z" fill="#171b19"/>
 <path d="m4.4895,1.77059 .09564-.01609c.03025-.00194.03324.00681.05365.01594l.01801.41721-.09304.01586c-.03026.00193-.03324-.00682-.07136-.01582l-.0029-.41711zm-.05927.40811 .03941.08046 .20466.00828c.04033-.0616.04437-.05468.04437-.13312v-.31063l-.01284-.09404-.09747-.02042-.06718.00352-.09405.01284-.01689.45309z" fill="#454e51"/>
 <path d="m4.74447,3.03077 .08513.01324 .17811.00352 .09748-.02042 .01284-.09404c.00764-.04359-.00592-.05917-.01689-.0981l-.09405-.01284-.1779-.00263-.08632.01604 .00159.19523z" fill="#fdc609"/>
 <path d="m4.09081,1.95399 .04211-.18354c.02042-.00913.0234-.01788.05366-.01594l.07716.01562 .03531.19823-.04388.07737-.01574.15009-.10612-.00831-.04248-.23352zm-.03777-.19685 .01689.49747 .09404.01284 .04457.00181 .08382-.00809 .0491-.08247-.01689-.45309-.09405-.01284-.06676-.00181-.08112.00946-.02962.03673z" fill="#454e51"/>
 <path d="m3.347,2.01442c.02977-.00903.03275-.01779.06301-.01585l.0794.01528 .00895.0761 .00264.02259-.01595.07503c-.02041.00913-.02339.01788-.05365.01595l-.08608-.01606 .00169-.17305zm.13382-.27387c-.04685-.03481-.03396-.02779-.0934-.02779-.05148,0-.04465.00509-.08558.02536-.02515.05865-.02536.0635-.02536.12995v.24406c0,.07017-.0007.06665.02853.12679 .06014.02923.05661.02852.12679.02852 .05698,0 .05813-.00594.1046-.02852 .02923-.06014.02852-.05661.02852-.12679v-.02219c0-.17355-.08231-.1253-.20286-.17433l-.01959-.13845 .13835-.03662z" fill="#454e51"/>
 <path d="m3.12816,3.02659 .10395.01742 .15593.00352 .09748-.02042 .01284-.09404c.00764-.04359-.00593-.05917-.01689-.0981l-.09404-.01284-.1779-.00263-.08729.01633 .00594.19077z" fill="#92ade4"/>
 <path d="m3.65762,3.0086 .08479.01322 .20009.00264 .07941-.01529 .00894-.0761 .00263-.02259-.01527-.07939-.07611-.00896-.20009-.00263-.08607.01606z" fill="#828b8c"/>
 <path d="m4.4924,2.1877c.03812.009.0411.01775.07136.01582l.09304-.01586-.01801-.41721c-.02041-.00913-.0234-.01788-.05365-.01594l-.09564.01609 .0029.41711z" fill="#d4ebf5"/>
 <path d="m4.13329,2.18751 .10612.00831 .01574-.15009 .04388-.07737-.03531-.19823-.07716-.01562c-.03026-.00194-.03324.00681-.05366.01594l-.04211.18354 .04248.23352z" fill="#d4ebf5"/>
 <path d="m4.8219,6.01372 .09735.10694c-.04493.10843-.07898.13629-.18283.10059-.02642-.02548-.04667-.05107-.03994-.09319l.00597-.06465 .11945-.04969zm-.01449-.04097c-.22388,0-.23751.33249 0,.33249 .21816,3.93701e-006 .25758-.33249 0-.33249z" fill="#150908"/>
 <path d="m3.29867,6.15026c.02882-.19865.22187-.15957.22187-.02219 0,.051-.00602.06047-.03994.09319-.10246.03521-.12266.01243-.18194-.071zm-.04438.06657c.17958.20315.51661.00903.19969-.26626-.17099.01043-.24121.10015-.19969.26626z" fill="#150908"/>
 <path d="m4.21386,3.00119 .33068.01755 .00616-.18765-.0761-.00896-.1779-.00263-.08494.01615z" fill="#8f9897"/>
 <path d="m3.48504,2.18757 .01595-.07503-.00264-.02259-.00895-.0761-.0794-.01528c-.03026-.00193-.03324.00682-.06301.01585l-.00169.17305 .08608.01606c.03025.00193.03324-.00682.05365-.01595z" fill="#d4ebf5"/>
 <path d="m3.42459,6.05876 .06196.05304-.02494.06393-.06546.00232-.0112.00415-.04363-.07958 .08327-.04385zm-.12592.09149c.05928.08343.07948.10621.18194.071 .03391-.03272.03994-.04219.03994-.09319 0-.13738-.19305-.17647-.22187.02219z" fill="#d91034"/>
 <path d="m4.80908,6.19095-.06401-.01013 .02627-.09739 .09044-.00485 .00177.06051-.01358.03584-.04089.01601zm-.10663-.12754-.00597.06465c-.00673.04211.01352.0677.03994.09319 .10385.0357.14265.01588.18757-.09255l-.04317-.07318-.05846-.04174-.11991.04962z" fill="#a51824"/>
 <path d="m3.34131,6.10261 .04363.07959 .02972.00887 .04693-.01534 .02495-.06392-.06195-.05305z" fill="#2e1109"/>
 <path d="m4.85649,6.17159 .01151-.03908-.00622-.05392-.07202-.01596-.04952.0395 .00483.0787 .05557.01806z" fill="#171b19"/>
 <path d="m3.59323,2.21642h.04643v.06331h-.04643z" fill="#5a6365"/>
 <path d="m4.11129,6.01935c.05985,0 .10839.04841.11743.11713-.00904.05069-.05757.0991-.11743.11712-.05985-.01802-.10839-.06644-.11742-.11712 .00904-.06871.05757-.11713.11742-.11713zm0,.02293c.04691,0 .08494.03895.0902.09237-.00526.04266-.0433.08161-.0902.09237-.04691-.01076-.08494-.04972-.0902-.09237 .00526-.05342.0433-.09237.0902-.09237z" fill="#454e51"/>
 <path d="m4.93987,3.21292c.05896,0 .10678.04574.11339.10846-.0066.05009-.05442.09583-.11339.10846-.05897-.01263-.10679-.05837-.11339-.10846 .0066-.06272.05442-.10846.11339-.10846z" fill="#262927"/>
 <path d="m3.51117,6.20572c.00979-.01948.0034-.01668.01837-.06797s-.05454-.1159-.1081-.14261-.10806.05468-.11178.10073-.00085.01741-.00049.02595c.02546-.03096.06032-.04691.09713-.0399 .05063.00964.09073.06001.10487.12379z" fill="#78191c"/>
 <path d="m2.7177,6.58541 .29901-.24811 .28197-.13945 .05415.189-.5638.30599-.02216-.10657z" fill="#34332c"/>
 <path d="m3.36906,6.14267c.02463.0553.04345.10963.08917.13429-.01589-.08804-.03148-.11153-.08917-.13429zm-.07037.05518 .01719-.08155c.06715-.10526.15637-.02697.19473.0515 .01824.15558-.07856.15335-.15778.21904l-.05415-.18899z" fill="#a51824"/>
 <path d="m2.62965,6.64085 .08805-.05544 .04917.00086 .02216.10657-.15858.08352c-.0016-.09548-.00017-.04038-.0008-.13551z" fill="#af2b33"/>
 <path d="m3.1573,6.19982 .15857-.08352-.01719.08155-.28197.13945z" fill="#646564"/>
 <path d="m3.36906,6.14267c.05769.02276.07328.04625.08917.13429-.04572-.02467-.06454-.07899-.08917-.13429z" fill="#ca5969"/>
 <path d="m4.21627,6.20609 .01806.07828c-.02152.11-.3391.31609-.44383.35216l-.23574.10384-.04935.02624-.06553-.02808-.14387.09825-.08086-.02329c.26074-.21231.5692-.38989.67358-.51164 .10648-.12421.13988-.19287.17313-.20134s.06663-.00731.15442.10558z" fill="#141412"/>
 <path d="m3.93025,6.56279-.33394.18638-.059-.02412 .51212-.33294 .01568.02617z" fill="#4b4c44"/>
 <path d="m3.09728,6.86541 .11787-.05192 .08086.02329 .14386-.09825 .06554.02808-.3676.23838z" fill="#34332c"/>
 <path d="m4.1315,6.24691-.03128-.03944-.00564-.01943c.02437.01908.07938.09136.09666.12804-.03742-.02931-.03083-.03601-.05974-.06917z" fill="#a5a49b"/>
 <path d="m4.22877,6.27361c.02243-.01664.03099-.05162.02309-.1092s-.05927-.1426-.13068-.15157-.10028.02103-.10267.0609-.02106.08771-.02057.09035c.02146-.01156.03576-.06096.09082-.04305 .08146.02649.13888.14218.14.15257z" fill="#34332c"/>
 <path d="m2.26546,7.00979-1.11488.82228c-.23345.21098-.41837.41353-.54209.68993-.05887.21013-.07132.45613-.031.67471 .06033.19981.12488.35741.24429.47281 .20229.12173.40669.17594.62587.2006 .22424.03814.45271.02142.65374-.0565 .05476-.01811.07153-.06997.10729-.10496l-.12404.00282-.02474-.00521c-.24559-.0528-.43843-.14781-.64181-.30402l-.02908-.03298c-.10413-.17805-.17028-.34344-.18579-.56581l.0005-.03531c.00493-.20966.03298-.33523.19057-.52524 .19002-.16463.43069-.19513.68824-.1689 .21263.07029.37251.17856.48596.38812 .1035.17615.11957.35645.11823.54047l-.00043.02518c-.00853.18953-.0466.34108-.1332.49895l-.06631.06487c.20709.03692.45849.02742.69723-.01585 .15892-.04391.25032-.16589.41979-.21401l.028-.00586c.16749-.03376.31598-.03376.4898.02533l.01931.00456 .48136.21112-.04427.10156-.47216-.20709c-.16335-.05233-.31192-.06456-.46471-.02404-.20326.04635-.26693.17409-.41768.21293l-.02409.00586c-.27194.06536-.54387.04843-.82847.01883-.06876.06726-.12063.14929-.20627.20178l-.03407.01584c-.21746.05769-.42859.09217-.68403.05911l-.0217-.00261c-.22379-.03239-.44124-.08588-.6587-.21112l-.03233-.02734c-.12314-.13302-.20618-.29981-.26179-.50669l-.00608-.02865c-.02391-.23364-.01406-.46728.04222-.70093l.01279-.02055c.12598-.26671.31759-.51893.56671-.73006l1.54202-1.11293 .0008.13551-.36499.23343zm.05909,2.58551c.04654-.04553.10997-.08051.13963-.13659 .07297-.1294.10374-.29256.11129-.44516 .00936-.18421-.01926-.35365-.11119-.50831-.09241-.16697-.21224-.24108-.41017-.3173-.25461-.03187-.43441-.01278-.60461.15654-.10073.12668-.13604.25125-.13759.44335 .01827.19801.06186.34116.17508.5244 .18176.1594.38883.24705.60857.28827l.22898-.0052z" fill="#af2b33" fill-rule="nonzero"/>
 <path d="m3.13781,7.00499c-.52039.29039-1.07876.53435-1.56117.87116-.23345.21098-.41837.41353-.54209.68993-.05887.21013-.07132.45613-.031.67471 .06033.19981.12488.35741.24429.47281 .20229.12173.40669.17594.62587.2006 .22424.03814.45271.02142.65374-.0565 .05476-.01811.07153-.06997.10729-.10496l-.12404.00282-.02474-.00521c-.24559-.0528-.43843-.14781-.64181-.30402l-.02908-.03298c-.10413-.17805-.17028-.34344-.18579-.56581l.0005-.03531c.00493-.20966.03298-.33523.19057-.52524 .19002-.16463.43069-.19513.68824-.1689 .21263.07029.37251.17856.48596.38812 .1035.17615.11957.35645.11823.54047l-.00043.02518c-.00853.18953-.0466.34108-.1332.49895l-.06631.06487c.20709.03692.45849.02742.69723-.01585 .15892-.04391.76521-.53307.93468-.58119l.028-.00586c.16749-.03376.31598-.03376.4898.02533l.01931.00456 .58167.25346-.04316.1035-.57358-.25137c-.16335-.05233-.31192-.06456-.46471-.02404-.20326.04635-.78183.54127-.93258.58011l-.02409.00586c-.27194.06536-.54387.04843-.82847.01883-.06876.06726-.12063.14929-.20627.20178l-.03407.01584c-.21746.05769-.42859.09217-.68403.05911l-.0217-.00261c-.22379-.03239-.44124-.08588-.6587-.21112l-.03233-.02734c-.12314-.13302-.20618-.29981-.26179-.50669l-.00608-.02865c-.02391-.23364-.01406-.46728.04222-.70093l.01279-.02055c.12598-.26671.31759-.51893.56671-.73006 .40969-.32771 1.05573-.62164 1.58359-.93246l.04053.13959zm-.38719,2.63439c.04654-.04553.10997-.08051.13963-.13659 .07297-.1294.10374-.29256.11129-.44516 .00936-.18421-.01926-.35365-.11119-.50831-.09241-.16697-.21224-.24108-.41017-.3173-.25461-.03187-.43441-.01278-.60461.15654-.10073.12668-.13604.25125-.13759.44335 .01827.19801.06186.34116.17508.5244 .18176.1594.38883.24705.60857.28827l.22898-.0052z" fill="#34332c" fill-rule="nonzero"/>
 <path d="m5.45454,9.36067c.09552.00795.44915.1695.54666.21623s.48121.16247.50231.24151l.08441.02081-.0083.01802-.09421-.02365 .0181.04204c.07284.01945.15274.07142.17165.15258l.03814-.01907 .05722-.01907 .07287-.02306 .07087.00683c.04959,0 .07501.00276.14233.01622 .08339-.02765-.04475-.06322-.10313-.08759-.08148-.03404-.09963-.06464-.18582-.09264l.04101-.01049v-.03815c-.02861-.00685-.05722-.00419-.05722-.03814 0-.05923.0565.02737.01907-.05722l-.05722.03815-.03719.02193 .01975.03428-.22813-.06334c-.02898-.0588-.4175-.17771-.51384-.20616-.08906-.0263-.15993-.09918-.23605-.12632l-.24425-.09906-.01907.09536z" fill="#141412"/>
 <path d="m5.47361,9.2653 .24425.09906c.07612.02713.147.10002.23605.12632 .09633.02845.48485.14735.51384.20616l.22813.06334-.01975-.03428 .03719-.02193-.99176-.41959c-.07686-.01791-.0953-.05722-.17165-.05722h-.01907c-.05449,0-.03488.006-.05722.03814z" fill="#34332c"/>
 <path d="m6.50352,9.87562-.0181-.04204 .09421.02365 .0083-.01802-.08441-.02081c-.02111-.07905-.40175-.19333-.50231-.24151s-.45115-.20828-.54666-.21623l.02324.0752 .26966.10871c.08035.03487.01386.03805.12256.06817 .04975.01379.07374.02511.12602.04563 .17684.06942.3556.18185.50751.21724z" fill="#292619"/>
 <path d="m7.05661,9.99005 .30305.10191c-.0737-.07243-.53192-.26742-.53192-.34985v-.09535l-.05722.01907c.03743.08459-.01907-.00201-.01907.05722 0,.03395.0286.03129.05722.03814v.03815l-.04101.01049c.08619.028.10434.0586.18582.09264 .05837.02438.18652.05995.10313.08759z" fill="#4b4c44"/>
 <path d="m5.42792,9.92491-.01907.09536 .01907.03815 .19088.0379 .13335.07653v.05722l.03814.07629 .03815.01907 .07629-.09535c-.01698-.00954-.03815-.01242-.03815-.03815 0-.06223.00986-.06282.03815-.09536l.05722-.01907v-.09535l-.05722-.01907-.07335.06046-.36532-.13675-.03814.03814z" fill="#292619"/>
 <path d="m4.55059,9.67696c.05468.05764.73391.31433.85826.3433l.01907-.09536-.36238-.09537c-.03518-.08717-.40786-.21563-.51495-.26701v.11443z" fill="#980a15"/>
 <path d="m4.55059,9.56253c.10709.05138.47977.17984.51495.26701l.36238.09537 .03814-.03814c-.06662-.05791-.76386-.36238-.87733-.36238-.02573,0-.02861.02117-.03815.03815z" fill="#cd2c35"/>
 <path d="m4.66502,9.7914 .51495.22887h.05722l.15258.07629h.03815v-.03814l-.01907-.03815c-.12435-.02897-.80358-.28566-.85826-.3433v.05722l.11444.05721z" fill="#763532"/>
 <path d="m5.90472,10.2301 .1335.03814 .17165.03815 .03815-.01907-.34077-.15809-.00253-.03263c-.02828.03254-.03815.03313-.03815.09536 0,.02573.02117.02861.03815.03815z" fill="#980a15"/>
 <path d="m5.42792,10.0966 .32423.1335v-.0573l-.13335-.0765-.19088-.0379z" fill="#34332c"/>
 <path d="m6.24803,10.2873 .01907-.0191-.30516-.1907-.05722.0191 .00254.0326z" fill="#cd2c35"/>
 <path d="m6.20988,10.3064 .30426.09826c-.02859-.04087-.18893-.11702-.24704-.13641l-.01907.01907-.03815.01907z" fill="#888987"/>
</svg>
