<?xml version="1.0" encoding="UTF-8"?>
<svg version="1.1" viewBox="0 0 665.35066 456.0918" xmlns="http://www.w3.org/2000/svg">
 <defs>
  <filter id="a" color-interpolation-filters="sRGB">
   <feGaussianBlur stdDeviation="4.419"/>
  </filter>
  <linearGradient id="e" x1="-150" x2="-56.071" gradientUnits="userSpaceOnUse">
   <stop stop-color="#191a1a" offset="0"/>
   <stop stop-color="#e4e4e4" offset=".3"/>
   <stop stop-color="#e3e3e3" offset=".668"/>
   <stop stop-color="#191a1a" offset="1"/>
  </linearGradient>
  <linearGradient id="d" x1="-139.92" x2="-101.35" gradientUnits="userSpaceOnUse">
   <stop stop-color="#333" offset="0"/>
   <stop stop-color="#949494" offset=".28"/>
   <stop stop-color="#c5c5c5" offset=".489"/>
   <stop stop-color="#949494" offset=".664"/>
   <stop stop-color="#333" offset="1"/>
  </linearGradient>
  <linearGradient id="c" x1="-272.49" x2="-44.556" y1="271.61" y2="270.6" gradientUnits="userSpaceOnUse">
   <stop stop-color="#fff" stop-opacity="0" offset="0"/>
   <stop stop-color="#fff" stop-opacity=".263" offset="1"/>
  </linearGradient>
  <radialGradient id="b" cx="-103.04" cy="437.36" r="46.964" gradientTransform="matrix(1 0 0 .13688 0 377.5)" gradientUnits="userSpaceOnUse">
   <stop stop-color="#ccc" offset="0"/>
   <stop stop-color="#333" offset="1"/>
  </radialGradient>
 </defs>
 <g transform="matrix(1.6689 0 0 1.6689 534 -249.56)">
  <path transform="matrix(1.0699 0 0 1.1292 -10.393 -78.312)" d="m-56.071 437.36c0 3.5504-21.027 6.4286-46.964 6.4286-25.938 0-46.964-2.8782-46.964-6.4286s21.027-6.4286 46.964-6.4286c25.938 0 46.964 2.8782 46.964 6.4286z" fill="url(#e)"/>
  <path transform="matrix(1.0592 0 0 1.1178 -11.501 -74.708)" d="m-56.071 437.36c0 3.5504-21.027 6.4286-46.964 6.4286-25.938 0-46.964-2.8782-46.964-6.4286s21.027-6.4286 46.964-6.4286c25.938 0 46.964 2.8782 46.964 6.4286z" fill="url(#b)"/>
  <path d="m-135.63 389.75h30v22.143c-10.357 2.8571-22.143 2.5-30 0v-22.143z" fill="url(#d)"/>
  <path d="m-319.97 149.54h398.67v241.44c-60.714 2.8571-317.24 4.2857-398.67 0v-241.44z" fill="#1a1a1a"/>
  <path d="m-305.07 163.93h368.87v205.84h-368.87z" fill="#4d4d4d"/>
  <g transform="matrix(.0595 0 0 .0595 -127.87 342.92)" fill="#FFF" filter="url(#a)">
   <path d="m-36.493 632.09v18.932c-1.5002 0.2609-2.87 0.3914-4.1092 0.3914-7.338 0-13.453-2.4134-18.345-7.2401-4.8919-4.8267-7.3379-10.876-7.3379-18.149-3e-6 -7.077 2.4704-13.078 7.4113-18.002 4.9409-4.9246 10.95-7.3868 18.027-7.3868 7.8923 5e-5 14.113 2.3074 18.663 6.9221 4.5496 4.6147 6.8242 10.917 6.8243 18.907v23.922h-18.296v-22.601c-3.6e-5 -2.5764-0.6278-4.631-1.8834-6.1639s-2.9434-2.2992-5.0632-2.2992c-1.9242 3e-5 -3.5875 0.7012-4.9898 2.1035s-2.1036 3.0657-2.1035 4.9898c-2.1e-5 2.022 0.6359 3.6853 1.9079 4.9898s2.8862 1.9568 4.843 1.9568c1.598 2e-5 3.0819-0.4239 4.4517-1.2719z"/>
   <path d="m-4.6875 583.62v66.219c-0.0537 9.422-4.317 19.087-9.7813 27.281-9.5158 14.401-26.73 25.149-45.281 27.375-18.844 2.4452-39.007-2.7006-57.594-10.75l-0.0625-0.0312c-2.9183-2.2497-6.4582-4.5733-10.438-6.6875-1.8087-0.8328-8.7302-4.6695-19.75-9.25-7.7278-4.7926-14.998-10.041-21.375-15.875-15.928-13.952-34.575-24.918-54.312-29.906-23.625-6.0808-46.171-3.6801-66.406 1.9063-29.618-6.6119-59.232-4.5796-81.094 2.3125l-0.0625 0.0312c-1.1025-0.7855-2.3234-1.6246-3.375-2.375-11.235-7.911-21.211-13.835-29-16-6.8031-1.8831-11.214-1.6435-12.188-1.7188 0.973 0.1167 5.3665 0.0709 12 2.2188 7.6013 2.4705 17.213 8.7447 28.062 17.094 0.6357 0.4874 1.3767 1.0268 2.0313 1.5313-27.112 8.2513-43.621 19.595-47.406 22.25 3.8882-2.5566 21.194-13.624 49.031-21 7.5615 5.8338 16.201 12.495 26.094 18.625-20.362 10.041-37.297 18.826-51.281 21.625-15.906 3.6867-24.822-2.8838-26.562-4.25 1.6802 1.4307 10.374 8.4222 26.75 5.3125 14.779-2.3796 32.909-11.064 54.469-20.656 16.813 9.8949 36.726 17.643 59.438 16.25 18.939-1.9721 36.959-5.7197 54.312-5.2188h0.75c30.223 19.628 61.545 37.087 89.656 44.719 35.233 10.911 62.644 8.038 66.875 7.4063 4.414-0.4645 8.477-1.39 12.125-2.5313l0.9063-0.0625c22.97-2.0539 44.57-13.94 57.969-32.5 7.8335-10.91 13.725-23.784 13.781-36.594 7e-4 -0.1663 0.0012-0.3337 0-0.5v-66.25h-18.294zm-327.91 49.188c11.256-0.0798 23.109 1.0028 34.969 3.4688-11.18 3.6204-21.555 8.0474-30.844 12.312-4.5984 2.1433-8.9855 4.2722-13.281 6.375-10.171-5.5174-19.295-11.773-27.281-17.438 10.782-2.9014 23.209-4.625 36.438-4.7188zm76.375 2.5c10.137-7e-4 20.468 1.3089 30.812 4.4375 17.095 5.0255 33.079 14.907 47.031 27.531-0.1-0.027-0.2123-0.0668-0.3125-0.0937-14.485-3.778-31.684-6.3903-49.875-5.7813h-0.3438c-6.4206-4.0636-12.93-8.1128-19.719-11.969-9.3303-5.2283-19.056-9.2832-28.906-12.312 6.956-1.1395 14.086-1.812 21.312-1.8125zm-30.625 3.625c12.205 3.4381 24.284 8.4404 35.625 15.25 3.817 2.6348 7.679 5.2322 11.562 7.8438-14.653 1.4195-29.44 4.8282-43.75 6.9063-19.705 2.186-38.258-3.6897-54.531-11.969 3.5922-1.5804 7.2836-3.1322 11.062-4.7188 11.986-4.9968 25.551-10.048 40.031-13.312zm72.719 31.781c11.821 1.2064 22.881 3.666 32.625 6.625 12.278 3.8326 22.558 8.1136 30.469 11.812 9.0403 5.8857 18.562 11.109 28.406 16.125 4.4184 2.1001 8.9674 4.061 13.625 5.8438-7.9502-0.9636-16.867-2.5951-26.562-5.2813-16.993-4.5156-35.941-11.927-55.062-21.844-7.9835-3.8874-15.738-8.4638-23.5-13.281z"/>
   <path d="m41.289 614.28v12.964h-22.356v-12.964z"/>
   <path d="m67.803 602.79v47.599h-19.861v-66.775h25.878c11.349 7e-5 20.236 2.5765 26.661 7.7293 7.6314 6.1639 11.447 14.529 11.447 25.096-7e-5 10.11-3.2614 18.361-9.7839 24.753-6.5225 6.3922-14.92 9.5882-25.194 9.5882-1.2067-1e-5 -3.1798-0.0652-5.9193-0.1957v-19.617h3.1798c11.578 2e-5 17.366-4.843 17.366-14.529-5.1e-5 -9.099-5.691-13.648-17.073-13.649z"/>
   <path d="m138.25 601.61v48.773h-18.296v-48.773zm-9.099-21.769c2.4786 7e-5 4.6229 0.8725 6.4329 2.6172s2.715 3.8076 2.715 6.1883c-2e-5 2.5439-0.8561 4.6311-2.5683 6.2617s-3.9054 2.446-6.5797 2.446-4.8675-0.8153-6.5797-2.446-2.5683-3.7178-2.5683-6.2617c0-2.3807 0.905-4.4435 2.715-6.1883s3.9543-2.6171 6.4329-2.6172z"/>
   <path d="m179.68 602.3v19.274c-2.5765 3e-5 -4.3457 0.4811-5.3078 1.4431s-1.5736 2.8618-1.8345 5.6991c-0.848 9.4252-4.5006 16.078-10.958 19.959-3.4244 2.022-8.2837 3.033-14.578 3.033h-2.5438v-19.372h0.8316c2.9352 2e-5 5.0306-0.6115 6.2862-1.8345s1.9812-3.3673 2.1769-6.4329c0.2609-4.9898 0.7256-8.4957 1.3942-10.518 0.6686-2.022 2.0301-4.0277 4.0848-6.0171 3.5874-3.4895 8.5609-5.2344 14.92-5.2344z"/>
   <path d="m212.8 632.09v18.932c-1.5002 0.2609-2.87 0.3914-4.1092 0.3914-7.338 0-13.453-2.4134-18.345-7.2401-4.8919-4.8267-7.3379-10.876-7.3379-18.149 0-7.077 2.4704-13.078 7.4113-18.002 4.9409-4.9246 10.95-7.3868 18.027-7.3868 7.8923 5e-5 14.113 2.3074 18.663 6.9221 4.5496 4.6147 6.8242 10.917 6.8243 18.907v23.922h-18.296v-22.601c-4e-5 -2.5764-0.6278-4.631-1.8834-6.1639s-2.9434-2.2992-5.0632-2.2992c-1.9242 3e-5 -3.5875 0.7012-4.9898 2.1035s-2.1036 3.0657-2.1035 4.9898c-2e-5 2.022 0.6359 3.6853 1.9079 4.9898s2.8862 1.9568 4.843 1.9568c1.598 2e-5 3.0819-0.4239 4.4517-1.2719z"/>
   <path d="m262.89 601.61v48.773h-18.296v-48.773zm-9.099-21.769c2.4786 7e-5 4.6229 0.8725 6.4329 2.6172s2.715 3.8076 2.715 6.1883c-2e-5 2.5439-0.8561 4.6311-2.5683 6.2617s-3.9054 2.446-6.5797 2.446-4.8675-0.8153-6.5797-2.446-2.5683-3.7178-2.5683-6.2617c0-2.3807 0.905-4.4435 2.715-6.1883s3.9543-2.6171 6.4329-2.6172z"/>
   <path d="m317.24 650.39h-18.292v-27.545c-3e-5 -2.8047-1.1578-4.207-3.4733-4.2071-2.2829 3e-5 -3.4244 1.4024-3.4244 4.2071v27.542h-18.296v-27.199c-1e-5 -6.3595 2.1035-11.716 6.3106-16.07 4.2071-4.3539 9.3599-6.5307 15.459-6.5308 6.9792 5e-5 12.572 2.5276 16.779 7.5825 3.2939 3.9462 4.9408 9.4415 4.9409 16.486z"/>
  </g>
  <g transform="matrix(.0595 0 0 .0595 -127.87 342.92)" fill="#FFF" filter="url(#a)">
   <path d="m-36.493 632.09v18.932c-1.5002 0.2609-2.87 0.3914-4.1092 0.3914-7.338 0-13.453-2.4134-18.345-7.2401-4.8919-4.8267-7.3379-10.876-7.3379-18.149-3e-6 -7.077 2.4704-13.078 7.4113-18.002 4.9409-4.9246 10.95-7.3868 18.027-7.3868 7.8923 5e-5 14.113 2.3074 18.663 6.9221 4.5496 4.6147 6.8242 10.917 6.8243 18.907v23.922h-18.296v-22.601c-3.6e-5 -2.5764-0.6278-4.631-1.8834-6.1639s-2.9434-2.2992-5.0632-2.2992c-1.9242 3e-5 -3.5875 0.7012-4.9898 2.1035s-2.1036 3.0657-2.1035 4.9898c-2.1e-5 2.022 0.6359 3.6853 1.9079 4.9898s2.8862 1.9568 4.843 1.9568c1.598 2e-5 3.0819-0.4239 4.4517-1.2719z"/>
   <path d="m-4.6875 583.62v66.219c-0.0537 9.422-4.317 19.087-9.7813 27.281-9.5158 14.401-26.73 25.149-45.281 27.375-18.844 2.4452-39.007-2.7006-57.594-10.75l-0.0625-0.0312c-2.9183-2.2497-6.4582-4.5733-10.438-6.6875-1.8087-0.8328-8.7302-4.6695-19.75-9.25-7.7278-4.7926-14.998-10.041-21.375-15.875-15.928-13.952-34.575-24.918-54.312-29.906-23.625-6.0808-46.171-3.6801-66.406 1.9063-29.618-6.6119-59.232-4.5796-81.094 2.3125l-0.0625 0.0312c-1.1025-0.7855-2.3234-1.6246-3.375-2.375-11.235-7.911-21.211-13.835-29-16-6.8031-1.8831-11.214-1.6435-12.188-1.7188 0.973 0.1167 5.3665 0.0709 12 2.2188 7.6013 2.4705 17.213 8.7447 28.062 17.094 0.6357 0.4874 1.3767 1.0268 2.0313 1.5313-27.112 8.2513-43.621 19.595-47.406 22.25 3.8882-2.5566 21.194-13.624 49.031-21 7.5615 5.8338 16.201 12.495 26.094 18.625-20.362 10.041-37.297 18.826-51.281 21.625-15.906 3.6867-24.822-2.8838-26.562-4.25 1.6802 1.4307 10.374 8.4222 26.75 5.3125 14.779-2.3796 32.909-11.064 54.469-20.656 16.813 9.8949 36.726 17.643 59.438 16.25 18.939-1.9721 36.959-5.7197 54.312-5.2188h0.75c30.223 19.628 61.545 37.087 89.656 44.719 35.233 10.911 62.644 8.038 66.875 7.4063 4.414-0.4645 8.477-1.39 12.125-2.5313l0.9063-0.0625c22.97-2.0539 44.57-13.94 57.969-32.5 7.8335-10.91 13.725-23.784 13.781-36.594 7e-4 -0.1663 0.0012-0.3337 0-0.5v-66.25h-18.294zm-327.91 49.188c11.256-0.0798 23.109 1.0028 34.969 3.4688-11.18 3.6204-21.555 8.0474-30.844 12.312-4.5984 2.1433-8.9855 4.2722-13.281 6.375-10.171-5.5174-19.295-11.773-27.281-17.438 10.782-2.9014 23.209-4.625 36.438-4.7188zm76.375 2.5c10.137-7e-4 20.468 1.3089 30.812 4.4375 17.095 5.0255 33.079 14.907 47.031 27.531-0.1-0.027-0.2123-0.0668-0.3125-0.0937-14.485-3.778-31.684-6.3903-49.875-5.7813h-0.3438c-6.4206-4.0636-12.93-8.1128-19.719-11.969-9.3303-5.2283-19.056-9.2832-28.906-12.312 6.956-1.1395 14.086-1.812 21.312-1.8125zm-30.625 3.625c12.205 3.4381 24.284 8.4404 35.625 15.25 3.817 2.6348 7.679 5.2322 11.562 7.8438-14.653 1.4195-29.44 4.8282-43.75 6.9063-19.705 2.186-38.258-3.6897-54.531-11.969 3.5922-1.5804 7.2836-3.1322 11.062-4.7188 11.986-4.9968 25.551-10.048 40.031-13.312zm72.719 31.781c11.821 1.2064 22.881 3.666 32.625 6.625 12.278 3.8326 22.558 8.1136 30.469 11.812 9.0403 5.8857 18.562 11.109 28.406 16.125 4.4184 2.1001 8.9674 4.061 13.625 5.8438-7.9502-0.9636-16.867-2.5951-26.562-5.2813-16.993-4.5156-35.941-11.927-55.062-21.844-7.9835-3.8874-15.738-8.4638-23.5-13.281z"/>
   <path d="m41.289 614.28v12.964h-22.356v-12.964z"/>
   <path d="m67.803 602.79v47.599h-19.861v-66.775h25.878c11.349 7e-5 20.236 2.5765 26.661 7.7293 7.6314 6.1639 11.447 14.529 11.447 25.096-7e-5 10.11-3.2614 18.361-9.7839 24.753-6.5225 6.3922-14.92 9.5882-25.194 9.5882-1.2067-1e-5 -3.1798-0.0652-5.9193-0.1957v-19.617h3.1798c11.578 2e-5 17.366-4.843 17.366-14.529-5.1e-5 -9.099-5.691-13.648-17.073-13.649z"/>
   <path d="m138.25 601.61v48.773h-18.296v-48.773zm-9.099-21.769c2.4786 7e-5 4.6229 0.8725 6.4329 2.6172s2.715 3.8076 2.715 6.1883c-2e-5 2.5439-0.8561 4.6311-2.5683 6.2617s-3.9054 2.446-6.5797 2.446-4.8675-0.8153-6.5797-2.446-2.5683-3.7178-2.5683-6.2617c0-2.3807 0.905-4.4435 2.715-6.1883s3.9543-2.6171 6.4329-2.6172z"/>
   <path d="m179.68 602.3v19.274c-2.5765 3e-5 -4.3457 0.4811-5.3078 1.4431s-1.5736 2.8618-1.8345 5.6991c-0.848 9.4252-4.5006 16.078-10.958 19.959-3.4244 2.022-8.2837 3.033-14.578 3.033h-2.5438v-19.372h0.8316c2.9352 2e-5 5.0306-0.6115 6.2862-1.8345s1.9812-3.3673 2.1769-6.4329c0.2609-4.9898 0.7256-8.4957 1.3942-10.518 0.6686-2.022 2.0301-4.0277 4.0848-6.0171 3.5874-3.4895 8.5609-5.2344 14.92-5.2344z"/>
   <path d="m212.8 632.09v18.932c-1.5002 0.2609-2.87 0.3914-4.1092 0.3914-7.338 0-13.453-2.4134-18.345-7.2401-4.8919-4.8267-7.3379-10.876-7.3379-18.149 0-7.077 2.4704-13.078 7.4113-18.002 4.9409-4.9246 10.95-7.3868 18.027-7.3868 7.8923 5e-5 14.113 2.3074 18.663 6.9221 4.5496 4.6147 6.8242 10.917 6.8243 18.907v23.922h-18.296v-22.601c-4e-5 -2.5764-0.6278-4.631-1.8834-6.1639s-2.9434-2.2992-5.0632-2.2992c-1.9242 3e-5 -3.5875 0.7012-4.9898 2.1035s-2.1036 3.0657-2.1035 4.9898c-2e-5 2.022 0.6359 3.6853 1.9079 4.9898s2.8862 1.9568 4.843 1.9568c1.598 2e-5 3.0819-0.4239 4.4517-1.2719z"/>
   <path d="m262.89 601.61v48.773h-18.296v-48.773zm-9.099-21.769c2.4786 7e-5 4.6229 0.8725 6.4329 2.6172s2.715 3.8076 2.715 6.1883c-2e-5 2.5439-0.8561 4.6311-2.5683 6.2617s-3.9054 2.446-6.5797 2.446-4.8675-0.8153-6.5797-2.446-2.5683-3.7178-2.5683-6.2617c0-2.3807 0.905-4.4435 2.715-6.1883s3.9543-2.6171 6.4329-2.6172z"/>
   <path d="m317.24 650.39h-18.292v-27.545c-3e-5 -2.8047-1.1578-4.207-3.4733-4.2071-2.2829 3e-5 -3.4244 1.4024-3.4244 4.2071v27.542h-18.296v-27.199c-1e-5 -6.3595 2.1035-11.716 6.3106-16.07 4.2071-4.3539 9.3599-6.5307 15.459-6.5308 6.9792 5e-5 12.572 2.5276 16.779 7.5825 3.2939 3.9462 4.9408 9.4415 4.9409 16.486z"/>
  </g>
  <g transform="matrix(.0595 0 0 .0595 -127.87 342.92)" fill="#FFF">
   <path d="m-36.493 632.09v18.932c-1.5002 0.2609-2.87 0.3914-4.1092 0.3914-7.338 0-13.453-2.4134-18.345-7.2401-4.8919-4.8267-7.3379-10.876-7.3379-18.149-3e-6 -7.077 2.4704-13.078 7.4113-18.002 4.9409-4.9246 10.95-7.3868 18.027-7.3868 7.8923 5e-5 14.113 2.3074 18.663 6.9221 4.5496 4.6147 6.8242 10.917 6.8243 18.907v23.922h-18.296v-22.601c-3.6e-5 -2.5764-0.6278-4.631-1.8834-6.1639s-2.9434-2.2992-5.0632-2.2992c-1.9242 3e-5 -3.5875 0.7012-4.9898 2.1035s-2.1036 3.0657-2.1035 4.9898c-2.1e-5 2.022 0.6359 3.6853 1.9079 4.9898s2.8862 1.9568 4.843 1.9568c1.598 2e-5 3.0819-0.4239 4.4517-1.2719z"/>
   <path d="m-4.6875 583.62v66.219c-0.0537 9.422-4.317 19.087-9.7813 27.281-9.5158 14.401-26.73 25.149-45.281 27.375-18.844 2.4452-39.007-2.7006-57.594-10.75l-0.0625-0.0312c-2.9183-2.2497-6.4582-4.5733-10.438-6.6875-1.8087-0.8328-8.7302-4.6695-19.75-9.25-7.7278-4.7926-14.998-10.041-21.375-15.875-15.928-13.952-34.575-24.918-54.312-29.906-23.625-6.0808-46.171-3.6801-66.406 1.9063-29.618-6.6119-59.232-4.5796-81.094 2.3125l-0.0625 0.0312c-1.1025-0.7855-2.3234-1.6246-3.375-2.375-11.235-7.911-21.211-13.835-29-16-6.8031-1.8831-11.214-1.6435-12.188-1.7188 0.973 0.1167 5.3665 0.0709 12 2.2188 7.6013 2.4705 17.213 8.7447 28.062 17.094 0.6357 0.4874 1.3767 1.0268 2.0313 1.5313-27.112 8.2513-43.621 19.595-47.406 22.25 3.8882-2.5566 21.194-13.624 49.031-21 7.5615 5.8338 16.201 12.495 26.094 18.625-20.362 10.041-37.297 18.826-51.281 21.625-15.906 3.6867-24.822-2.8838-26.562-4.25 1.6802 1.4307 10.374 8.4222 26.75 5.3125 14.779-2.3796 32.909-11.064 54.469-20.656 16.813 9.8949 36.726 17.643 59.438 16.25 18.939-1.9721 36.959-5.7197 54.312-5.2188h0.75c30.223 19.628 61.545 37.087 89.656 44.719 35.233 10.911 62.644 8.038 66.875 7.4063 4.414-0.4645 8.477-1.39 12.125-2.5313l0.9063-0.0625c22.97-2.0539 44.57-13.94 57.969-32.5 7.8335-10.91 13.725-23.784 13.781-36.594 7e-4 -0.1663 0.0012-0.3337 0-0.5v-66.25h-18.294zm-327.91 49.188c11.256-0.0798 23.109 1.0028 34.969 3.4688-11.18 3.6204-21.555 8.0474-30.844 12.312-4.5984 2.1433-8.9855 4.2722-13.281 6.375-10.171-5.5174-19.295-11.773-27.281-17.438 10.782-2.9014 23.209-4.625 36.438-4.7188zm76.375 2.5c10.137-7e-4 20.468 1.3089 30.812 4.4375 17.095 5.0255 33.079 14.907 47.031 27.531-0.1-0.027-0.2123-0.0668-0.3125-0.0937-14.485-3.778-31.684-6.3903-49.875-5.7813h-0.3438c-6.4206-4.0636-12.93-8.1128-19.719-11.969-9.3303-5.2283-19.056-9.2832-28.906-12.312 6.956-1.1395 14.086-1.812 21.312-1.8125zm-30.625 3.625c12.205 3.4381 24.284 8.4404 35.625 15.25 3.817 2.6348 7.679 5.2322 11.562 7.8438-14.653 1.4195-29.44 4.8282-43.75 6.9063-19.705 2.186-38.258-3.6897-54.531-11.969 3.5922-1.5804 7.2836-3.1322 11.062-4.7188 11.986-4.9968 25.551-10.048 40.031-13.312zm72.719 31.781c11.821 1.2064 22.881 3.666 32.625 6.625 12.278 3.8326 22.558 8.1136 30.469 11.812 9.0403 5.8857 18.562 11.109 28.406 16.125 4.4184 2.1001 8.9674 4.061 13.625 5.8438-7.9502-0.9636-16.867-2.5951-26.562-5.2813-16.993-4.5156-35.941-11.927-55.062-21.844-7.9835-3.8874-15.738-8.4638-23.5-13.281z"/>
   <path d="m41.289 614.28v12.964h-22.356v-12.964z"/>
   <path d="m67.803 602.79v47.599h-19.861v-66.775h25.878c11.349 7e-5 20.236 2.5765 26.661 7.7293 7.6314 6.1639 11.447 14.529 11.447 25.096-7e-5 10.11-3.2614 18.361-9.7839 24.753-6.5225 6.3922-14.92 9.5882-25.194 9.5882-1.2067-1e-5 -3.1798-0.0652-5.9193-0.1957v-19.617h3.1798c11.578 2e-5 17.366-4.843 17.366-14.529-5.1e-5 -9.099-5.691-13.648-17.073-13.649z"/>
   <path d="m138.25 601.61v48.773h-18.296v-48.773zm-9.099-21.769c2.4786 7e-5 4.6229 0.8725 6.4329 2.6172s2.715 3.8076 2.715 6.1883c-2e-5 2.5439-0.8561 4.6311-2.5683 6.2617s-3.9054 2.446-6.5797 2.446-4.8675-0.8153-6.5797-2.446-2.5683-3.7178-2.5683-6.2617c0-2.3807 0.905-4.4435 2.715-6.1883s3.9543-2.6171 6.4329-2.6172z"/>
   <path d="m179.68 602.3v19.274c-2.5765 3e-5 -4.3457 0.4811-5.3078 1.4431s-1.5736 2.8618-1.8345 5.6991c-0.848 9.4252-4.5006 16.078-10.958 19.959-3.4244 2.022-8.2837 3.033-14.578 3.033h-2.5438v-19.372h0.8316c2.9352 2e-5 5.0306-0.6115 6.2862-1.8345s1.9812-3.3673 2.1769-6.4329c0.2609-4.9898 0.7256-8.4957 1.3942-10.518 0.6686-2.022 2.0301-4.0277 4.0848-6.0171 3.5874-3.4895 8.5609-5.2344 14.92-5.2344z"/>
   <path d="m212.8 632.09v18.932c-1.5002 0.2609-2.87 0.3914-4.1092 0.3914-7.338 0-13.453-2.4134-18.345-7.2401-4.8919-4.8267-7.3379-10.876-7.3379-18.149 0-7.077 2.4704-13.078 7.4113-18.002 4.9409-4.9246 10.95-7.3868 18.027-7.3868 7.8923 5e-5 14.113 2.3074 18.663 6.9221 4.5496 4.6147 6.8242 10.917 6.8243 18.907v23.922h-18.296v-22.601c-4e-5 -2.5764-0.6278-4.631-1.8834-6.1639s-2.9434-2.2992-5.0632-2.2992c-1.9242 3e-5 -3.5875 0.7012-4.9898 2.1035s-2.1036 3.0657-2.1035 4.9898c-2e-5 2.022 0.6359 3.6853 1.9079 4.9898s2.8862 1.9568 4.843 1.9568c1.598 2e-5 3.0819-0.4239 4.4517-1.2719z"/>
   <path d="m262.89 601.61v48.773h-18.296v-48.773zm-9.099-21.769c2.4786 7e-5 4.6229 0.8725 6.4329 2.6172s2.715 3.8076 2.715 6.1883c-2e-5 2.5439-0.8561 4.6311-2.5683 6.2617s-3.9054 2.446-6.5797 2.446-4.8675-0.8153-6.5797-2.446-2.5683-3.7178-2.5683-6.2617c0-2.3807 0.905-4.4435 2.715-6.1883s3.9543-2.6171 6.4329-2.6172z"/>
   <path d="m317.24 650.39h-18.292v-27.545c-3e-5 -2.8047-1.1578-4.207-3.4733-4.2071-2.2829 3e-5 -3.4244 1.4024-3.4244 4.2071v27.542h-18.296v-27.199c-1e-5 -6.3595 2.1035-11.716 6.3106-16.07 4.2071-4.3539 9.3599-6.5307 15.459-6.5308 6.9792 5e-5 12.572 2.5276 16.779 7.5825 3.2939 3.9462 4.9408 9.4415 4.9409 16.486z"/>
  </g>
  <path d="m-319.97 149.53v241.44c43.181 2.2727 135.53 2.9583 221.88 2.6563l-57.188-244.09h-164.69z" fill="url(#c)"/>
 </g>
</svg>
